<?xml version="1.0" standalone="no"?>
<!DOCTYPE svg PUBLIC "-//W3C//DTD SVG 1.1//EN" "http://www.w3.org/Graphics/SVG/1.1/DTD/svg11.dtd" >
<svg>
<metadata>
Created by FontForge 20120731 at Mon May 28 12:43:52 2018
 By www
(URW)++,Copyright 2004 by (URW)++ Design &#38; Development
</metadata>
<defs>
<font id="URWImpactW01-BoldCondensed" horiz-adv-x="500" >
  <font-face 
    font-family="URWImpactW01-BoldCondensed"
    font-weight="700"
    font-stretch="normal"
    units-per-em="1000"
    panose-1="4 0 8 6 0 0 0 0 0 0"
    ascent="795"
    descent="-205"
    x-height="545"
    cap-height="667"
    bbox="-93 -246 733 904"
    underline-thickness="119"
    underline-position="-126"
    unicode-range="U+000D-2122"
  />
<missing-glyph horiz-adv-x="0" 
 />
    <glyph glyph-name=".notdef" horiz-adv-x="0" 
 />
    <glyph glyph-name=".null" horiz-adv-x="0" 
 />
    <glyph glyph-name="uni000D" unicode="&#xd;" horiz-adv-x="0" 
 />
    <glyph glyph-name="space" unicode=" " horiz-adv-x="133" 
 />
    <glyph glyph-name="exclam" unicode="!" horiz-adv-x="219" 
d="M182 0h-129v130h129v-130zM174 164h-110l-20 501h154z" />
    <glyph glyph-name="quotedbl" unicode="&#x22;" 
d="M296 388l-26 279h127l-27 -279h-74zM129 388l-26 279h127l-27 -279h-74z" />
    <glyph glyph-name="numbersign" unicode="#" horiz-adv-x="541" 
d="M241 381l-13 -82h84l13 82h-84zM489 211h-101l-34 -211h-89l33 211h-84l-33 -211h-88l33 211h-99v88h113l13 82h-98v88h112l31 198h88l-31 -198h84l32 198h89l-32 -198h86v-88h-99l-14 -82h88v-88z" />
    <glyph glyph-name="dollar" unicode="$" horiz-adv-x="389" 
d="M229 719v-49q37 -7 61.5 -19.5t39 -34t19.5 -54t4 -79.5h-136v64q0 34 -23 34q-16 0 -21 -10t-5 -40q0 -19 1.5 -30.5t12 -23.5t32 -28.5t62.5 -46.5q18 -13 30 -23.5t20.5 -21t14.5 -21t11 -23.5q8 -19 11.5 -42.5t3.5 -49.5q0 -84 -33.5 -131t-106.5 -65v-58h-61v61
q-50 6 -83 35q-16 14 -26.5 29.5t-17 35.5t-9 46t-2.5 61v20h140v-85q0 -26 5.5 -35t19.5 -9q15 0 20 11.5t5 47.5q0 24 -1.5 39.5t-7.5 27t-17.5 22t-30.5 24.5q-41 30 -66.5 53t-40 45.5t-19.5 48t-5 60.5q0 148 137 166v48h62z" />
    <glyph glyph-name="percent" unicode="%" horiz-adv-x="431" 
d="M218 192q0 36 3.5 57t12.5 35q26 42 81 42q96 0 96 -119v-90q0 -68 -22.5 -98.5t-73.5 -30.5q-32 0 -55.5 14.5t-33.5 40.5q-4 12 -6 30.5t-2 47.5v71zM302 82q0 -17 2.5 -22.5t9.5 -5.5q8 0 10 6t2 23v157q0 17 -2.5 22.5t-9.5 5.5t-9.5 -6t-2.5 -23v-157zM17 550
q0 36 3.5 56.5t12.5 35.5q26 42 81 42q96 0 96 -119v-90q0 -68 -22.5 -98.5t-73.5 -30.5q-32 0 -55.5 14.5t-33.5 40.5q-4 12 -6 30.5t-2 47.5v71zM101 439q0 -16 2.5 -22t9.5 -6q8 0 10 6t2 24v157q0 17 -2.5 22.5t-9.5 5.5q-12 0 -12 -29v-158zM366 680l-255 -680h-34
l254 680h35z" />
    <glyph glyph-name="ampersand" unicode="&#x26;" horiz-adv-x="435" 
d="M184 203q-16 -20 -21.5 -32t-5.5 -29q0 -20 8.5 -32t22.5 -12q20 0 38 17zM198 372q1 2 2 3q11 10 18 30.5t7 37.5t-7.5 27.5t-19.5 10.5t-19 -10t-7 -27q0 -20 7 -39t19 -33zM340 198l78 53l-1 -115l-43 -27l50 -109h-132l-18 40q-35 -24 -65 -35.5t-60 -11.5
q-57 0 -91.5 42.5t-34.5 113.5q0 106 81 141q-16 14 -26.5 27.5t-16.5 27.5t-8.5 31t-2.5 39q0 71 40 112t109 41q63 0 100.5 -39.5t37.5 -105.5q0 -35 -12 -66.5t-34 -54.5z" />
    <glyph glyph-name="quotesingle" unicode="'" horiz-adv-x="250" 
d="M88 388l-26 279h127l-27 -279h-74z" />
    <glyph glyph-name="parenleft" unicode="(" horiz-adv-x="284" 
d="M258 581h-16q-14 0 -22 -1t-11.5 -4.5t-4.5 -11.5t-1 -21v-410q0 -18 0.5 -28t4 -14.5t10.5 -5.5t20 -1h19v-84h-69q-35 0 -57.5 5.5t-35.5 20t-17.5 40.5t-4.5 67v411q0 21 1 36t3.5 25.5t6.5 17.5t11 14q29 30 97 30h66v-86z" />
    <glyph glyph-name="parenright" unicode=")" horiz-adv-x="284" 
d="M126 667q68 0 97 -30q7 -7 11 -14.5t6.5 -18t3.5 -25t1 -35.5v-411q0 -41 -5 -67t-17.5 -40.5t-35 -20t-57.5 -5.5h-69v84h19q13 0 20 1t10.5 5.5t4 14.5t0.5 28v410q0 13 -1 21t-4.5 11.5t-11.5 4.5t-22 1h-16v86h66z" />
    <glyph glyph-name="asterisk" unicode="*" horiz-adv-x="338" 
d="M197 682l56 21l18 -49l-59 -23l38 -53l-41 -30l-39 53l-38 -53l-42 30l36 53l-59 24l18 47l58 -18l3 60h48z" />
    <glyph glyph-name="plus" unicode="+" 
d="M200 390v183h100v-183h194v-100h-194v-183h-100v183h-193v100h193z" />
    <glyph glyph-name="comma" unicode="," horiz-adv-x="167" 
d="M134 134q0 -28 -0.5 -46t-1 -31t-2 -23t-4.5 -22q-4 -18 -12.5 -34t-19.5 -29t-24.5 -21.5t-26.5 -10.5l-4 52q9 6 12 11.5t5 19.5h-21v134h99z" />
    <glyph glyph-name="hyphen" unicode="-" horiz-adv-x="287" 
d="M254 271h-221v130h221v-130z" />
    <glyph glyph-name="period" unicode="." horiz-adv-x="173" 
d="M140 0h-105v134h105v-134z" />
    <glyph glyph-name="slash" unicode="/" horiz-adv-x="289" 
d="M289 680l-255 -680h-34l254 680h35z" />
    <glyph glyph-name="zero" unicode="0" horiz-adv-x="376" 
d="M165 146q0 -32 5 -42.5t20 -10.5q19 0 24 19q2 3 2 8.5v25.5v386q0 28 -5.5 38.5t-19.5 10.5t-20 -10t-6 -36v-389zM357 183q0 -29 -2.5 -48.5t-8.5 -40.5q-14 -50 -56 -80t-99 -30q-29 0 -54.5 8.5t-46.5 23.5t-35 35.5t-20 44.5q-5 19 -6.5 41.5t-1.5 55.5v290
q0 47 5 73.5t18 47.5q22 37 59.5 57.5t82.5 20.5q28 0 54 -8.5t47 -24t35.5 -36.5t20.5 -46q5 -18 6.5 -37.5t1.5 -51.5v-295z" />
    <glyph glyph-name="one" unicode="1" horiz-adv-x="249" 
d="M240 0h-138v400q0 25 -2 40.5t-8 23.5t-17 11t-30 4l-40 1l1 74q25 7 49.5 19t45.5 27t37 32t26 35h76v-667z" />
    <glyph glyph-name="two" unicode="2" horiz-adv-x="376" 
d="M30 467q0 120 50 168q20 20 50 30.5t66 10.5q78 0 119.5 -43.5t41.5 -124.5q0 -35 -7.5 -67.5t-26.5 -76.5q-10 -20 -19.5 -41t-16.5 -32l-105 -179h164v-112h-318v98l137 262q57 111 57 157q0 23 -8 36.5t-22 13.5q-19 0 -27 -18t-8 -63v-48h-127v29z" />
    <glyph glyph-name="three" unicode="3" horiz-adv-x="377" 
d="M25 522q0 56 13 86q7 16 22.5 29.5t36 23.5t44.5 15.5t50 5.5q79 0 116 -43.5t37 -135.5q0 -28 -2.5 -48t-9 -34.5t-17.5 -25.5t-28 -20q19 -9 32 -21t20 -32.5t10 -51.5t3 -77q0 -59 -6 -91.5t-23 -57.5q-18 -28 -52.5 -43t-81.5 -15q-90 0 -129 46.5t-39 153.5v74h135
v-113q0 -38 5.5 -50t24.5 -12q14 0 20 12t6 41v76q0 50 -13.5 71t-45.5 22h-29v96l26 1h6q32 1 42.5 14.5t10.5 55.5v58q0 30 -5.5 41t-20.5 11q-14 0 -19.5 -13t-6.5 -48l-1 -67h-131v66z" />
    <glyph glyph-name="four" unicode="4" horiz-adv-x="372" 
d="M119 229h67v288zM321 233h40v-113h-41v-120h-138v118h-165v106l126 443h178v-434z" />
    <glyph glyph-name="five" unicode="5" horiz-adv-x="375" 
d="M346 667v-104h-177l-4 -120q33 49 88 49q79 0 102 -91q3 -14 4.5 -34.5t1.5 -55.5v-102q0 -57 -4.5 -87.5t-15.5 -52.5q-20 -40 -57.5 -62t-84.5 -22q-64 0 -107.5 35t-54.5 95q-3 15 -4 34t-1 49v49h137l-2 -100q0 -39 5.5 -51.5t22.5 -12.5q28 0 28 44l1 197
q0 27 -5.5 36t-22.5 9q-27 0 -27 -37h-131l11 335h297z" />
    <glyph glyph-name="six" unicode="6" horiz-adv-x="373" 
d="M162 140v-20t0.5 -11.5t1 -7t2.5 -5.5q8 -13 23 -13q22 0 28 21q2 4 2 11v26v121q0 33 -6.5 47t-21.5 14q-29 0 -29 -53v-130zM218 494l-1 49q0 47 -26 47q-14 0 -20.5 -12t-6.5 -40v-145q11 17 19.5 27.5t17.5 16t19 7.5t25 2q34 0 61 -19.5t39 -53.5q5 -15 7.5 -43
t2.5 -74v-79q0 -38 -4 -61.5t-14 -43.5q-20 -39 -58.5 -61t-88.5 -22q-54 0 -94 26.5t-57 73.5q-12 34 -12 101v243q0 37 1 63t3.5 44t6.5 31.5t11 26.5q21 42 60.5 65t90.5 23q58 0 95.5 -29.5t48.5 -83.5q3 -16 4.5 -34t1.5 -44z" />
    <glyph glyph-name="seven" unicode="7" horiz-adv-x="355" 
d="M323 667v-135l-81 -532h-153l103 554l-136 1v111z" />
    <glyph glyph-name="eight" unicode="8" horiz-adv-x="376" 
d="M165 136q0 -28 6.5 -39.5t22.5 -11.5q15 0 20 10.5t5 44.5v115q0 30 -5 40.5t-20 10.5q-10 0 -17.5 -6t-9.5 -15q-2 -5 -2 -10v-19v-120zM168 468q0 -23 6 -33t20 -10q25 0 25 43v75q0 26 -5.5 36t-19.5 10q-15 0 -20.5 -9.5t-5.5 -35.5v-76zM290 374q31 -12 50 -43
q9 -17 13 -42t4 -71q0 -72 -5.5 -109.5t-19.5 -59.5q-41 -64 -141 -64q-50 0 -85.5 16.5t-52.5 47.5q-8 13 -13 26.5t-8 30t-4 38t-1 51.5q0 46 2.5 76t9.5 49.5t20 31t34 21.5q-18 12 -29 24t-18 27t-9.5 34t-2.5 45q0 92 39 134.5t124 42.5q81 0 118 -41t37 -132
q0 -29 -3 -50t-10 -36.5t-19 -26.5t-30 -20z" />
    <glyph glyph-name="nine" unicode="9" horiz-adv-x="370" 
d="M162 417q0 -30 6 -42t20 -12t20 13.5t6 45.5v115q0 25 -6 35t-20 10q-15 0 -20.5 -13t-5.5 -47v-105zM161 137q0 -20 0.5 -28t2.5 -13q8 -17 25 -17q16 0 22 12t5 43v8l1 142q-23 -42 -75 -42q-30 0 -56 17t-39 46q-13 32 -13 95v77q0 56 6.5 88t23.5 54q21 29 55.5 46
t73.5 17q52 0 92 -28t54 -76q8 -23 10.5 -44.5t2.5 -51.5v-307q0 -47 -5.5 -76.5t-18.5 -50.5q-40 -66 -134 -66q-78 0 -122.5 47.5t-44.5 132.5v15t2 17h132v-57z" />
    <glyph glyph-name="colon" unicode=":" horiz-adv-x="171" 
d="M140 0h-105v134h105v-134zM140 226h-105v134h105v-134z" />
    <glyph glyph-name="semicolon" unicode=";" horiz-adv-x="169" 
d="M134 134q0 -28 -0.5 -46t-1 -31t-2 -23t-4.5 -22q-4 -18 -12.5 -34t-19.5 -29t-24.5 -21.5t-26.5 -10.5l-4 52q9 6 12 11.5t5 19.5h-21v134h99zM136 228h-101v132h101v-132z" />
    <glyph glyph-name="less" unicode="&#x3c;" 
d="M494 489l-357 -157l357 -134v-109l-487 187v111l487 211v-109z" />
    <glyph glyph-name="equal" unicode="=" 
d="M494 310v-100h-487v100h487zM494 470v-100h-487v100h487z" />
    <glyph glyph-name="greater" unicode="&#x3e;" 
d="M7 198l357 156l-357 135v109l487 -188v-110l-487 -211v109z" />
    <glyph glyph-name="question" unicode="?" horiz-adv-x="364" 
d="M157 0h-131v133h131v-133zM157 166h-131v182h130v-6q0 -14 7 -22t18 -8q16 0 21 12.5t5 48.5v151q0 34 -4.5 45t-18.5 11q-15 0 -20.5 -11.5t-5.5 -40.5v-82h-138q0 33 1 57t3.5 42t7 31t10.5 24q20 36 59 56.5t87 20.5q158 0 158 -188v-114q0 -54 -6 -84.5t-21 -52.5
q-29 -45 -82 -45q-24 0 -41 9t-39 33v-69z" />
    <glyph glyph-name="at" unicode="@" horiz-adv-x="667" 
d="M340 329q-36 -23 -36 -67v-18v-14q0 -33 19 -33q10 0 13.5 7.5t3.5 29.5v95zM207 441q0 60 34.5 94t97.5 34q121 0 121 -122l-1 -238q0 -7 8.5 -12t19.5 -5q34 0 81 65q17 24 26.5 55.5t9.5 63.5q0 52 -19 96t-52.5 75.5t-80.5 49t-103 17.5q-59 0 -110.5 -21.5t-89 -60
t-59 -90t-21.5 -111.5t21.5 -110.5t59 -88t89 -58.5t111.5 -21q28 0 52 4t46.5 13.5t45 25t47.5 37.5h84q-32 -41 -63 -68.5t-64.5 -44.5t-72 -24.5t-85.5 -7.5q-78 0 -143 25.5t-112.5 71t-74 108t-26.5 137.5t27 139t75 110.5t113.5 73t142.5 26.5q70 0 129.5 -21t102 -59
t66.5 -90.5t24 -114.5q0 -127 -105 -217q-29 -26 -69.5 -41t-78.5 -15q-26 0 -45.5 11.5t-20.5 25.5q-24 -43 -65 -43q-38 0 -59 25.5t-20 68.5v4v53q0 22 4.5 37.5t16 27.5t32 22.5t53.5 22.5q37 17 34 54v5v40q0 31 -15 31q-8 0 -11.5 -8t-3.5 -29l-1 -78h-103v50z" />
    <glyph glyph-name="A" unicode="A" horiz-adv-x="371" 
d="M158 238h50l-21 280zM292 667l77 -667h-149l-8 119h-54l-8 -119h-146l73 667h215z" />
    <glyph glyph-name="B" unicode="B" horiz-adv-x="383" 
d="M170 113q31 0 40.5 8.5t9.5 37.5v87q0 37 -9 47.5t-41 10.5v-191zM176 409q26 0 33.5 8.5t7.5 34.5v52q0 31 -6.5 41.5t-25.5 10.5l-14 -1v-146h5zM190 665q71 0 115 -24q15 -9 25 -21t16.5 -30.5t9 -45t2.5 -64.5q0 -59 -17.5 -83.5t-62.5 -29.5q25 -8 42 -19t27 -27
t14 -38.5t4 -55.5v-91q0 -74 -32.5 -105t-110.5 -31h-198v665h166z" />
    <glyph glyph-name="C" unicode="C" horiz-adv-x="388" 
d="M225 393v124q0 27 -6 38t-20 11q-20 0 -25 -20q-2 -3 -2 -9.5v-24.5v-351q0 -37 5 -49.5t21 -12.5q14 0 19.5 11t5.5 37v139h148v-103q0 -99 -44.5 -149.5t-131.5 -50.5q-129 0 -160 111q-11 39 -11 129v231q0 53 4.5 83t16.5 54q43 88 152 88q51 0 88.5 -18t57.5 -52
q14 -23 21 -58t7 -78v-80h-146z" />
    <glyph glyph-name="D" unicode="D" horiz-adv-x="390" 
d="M180 116q24 -1 31 8.5t7 43.5v318q0 25 -1 39t-5.5 21t-14 8.5t-26.5 1.5v-440h9zM23 667h179q51 0 82.5 -10t52.5 -32q10 -10 16 -21t9.5 -28t4.5 -42.5t1 -65.5l-1 -317v-4q0 -57 -12.5 -87t-41.5 -45q-30 -15 -81 -15h-209v667z" />
    <glyph glyph-name="E" unicode="E" horiz-adv-x="290" 
d="M274 667v-135h-105v-125h94v-125h-94v-149h111v-133h-257v667h251z" />
    <glyph glyph-name="F" unicode="F" horiz-adv-x="282" 
d="M275 667v-135h-103v-122h88v-128h-88v-282h-149v667h252z" />
    <glyph glyph-name="G" unicode="G" horiz-adv-x="396" 
d="M372 0h-96l-14 42q-20 -33 -41.5 -47t-53.5 -14q-24 0 -45.5 8t-39.5 23t-30.5 35.5t-18.5 45.5q-6 22 -8.5 46.5t-2.5 53.5v279q0 92 30 136q21 32 58 49.5t84 17.5q85 0 129 -49.5t44 -144.5v-62l-149 -1v92q0 32 -5 44t-19 12t-19 -11t-5 -37v-357q0 -35 5.5 -48
t20.5 -13t21.5 14.5t6.5 49.5v91h-30l-1 100l179 3v-358z" />
    <glyph glyph-name="H" unicode="H" horiz-adv-x="388" 
d="M364 0h-147l2 276h-51v-276h-145v665h147l-2 -238h51l-2 238h147v-665z" />
    <glyph glyph-name="I" unicode="I" horiz-adv-x="195" 
d="M171 0h-149v667h149v-667z" />
    <glyph glyph-name="J" unicode="J" horiz-adv-x="235" 
d="M211 122q0 -66 -27 -94t-90 -28h-88v113h10q29 0 38.5 11t9.5 43v499h148z" />
    <glyph glyph-name="K" unicode="K" horiz-adv-x="394" 
d="M169 666l-1 -246l68 247h139l-86 -298l95 -369h-154l-60 278l-2 -278h-145v666h146z" />
    <glyph glyph-name="L" unicode="L" horiz-adv-x="284" 
d="M172 129h92v-129h-240v667h148v-538z" />
    <glyph glyph-name="M" unicode="M" horiz-adv-x="505" 
d="M481 0h-128l1 440l-59 -440h-92l-50 438l-3 -438h-127v665h196l33 -302l39 302h190v-665z" />
    <glyph glyph-name="N" unicode="N" horiz-adv-x="379" 
d="M355 0h-124l-82 300l-4 -300h-122v667h132l76 -309l1 309h122z" />
    <glyph glyph-name="O" unicode="O" horiz-adv-x="393" 
d="M171 156q0 -32 5.5 -43.5t20.5 -11.5q13 0 18.5 11.5t5.5 38.5v361q0 35 -5 46.5t-19 11.5q-15 0 -20.5 -12.5t-5.5 -48.5v-353zM370 203q0 -105 -31 -152q-44 -65 -140 -65q-175 0 -175 198v304q0 94 44.5 143.5t128.5 49.5q54 0 94.5 -23.5t59.5 -65.5q19 -39 19 -118
v-271z" />
    <glyph glyph-name="P" unicode="P" horiz-adv-x="351" 
d="M171 386h6q26 0 34 11t8 46v51q0 19 -1.5 30.5t-6 17.5t-12.5 8t-22 2h-6v-166zM181 664q50 0 79 -7.5t47 -24.5q12 -11 19 -24.5t11.5 -34t6 -51t1.5 -75.5q0 -52 -6.5 -86t-23 -54.5t-44 -29t-69.5 -8.5h-14t-19 1v-270h-146v664h158z" />
    <glyph glyph-name="Q" unicode="Q" horiz-adv-x="390" 
d="M219 516q0 26 -0.5 32t-3.5 11q-8 10 -20 10q-14 0 -19.5 -14t-5.5 -50v-348q0 -25 0.5 -32t4.5 -13q6 -13 21 -13q12 0 17.5 10.5t5.5 34.5v372zM369 192q0 -142 -94 -155q-1 -3 -1 -8q0 -28 29 -28l66 -1v-80h-135q-17 0 -27 2.5t-18 7.5q-11 8 -17.5 23.5t-6.5 32.5
l1 13q-91 8 -126 90q-16 39 -16 113v267q0 54 9 91.5t27 60.5q46 58 133 58q52 0 92.5 -20.5t60.5 -56.5q12 -21 17.5 -52t5.5 -72v-286z" />
    <glyph glyph-name="R" unicode="R" horiz-adv-x="379" 
d="M180 414q4 -1 7.5 -1h4.5q16 0 21.5 10.5t5.5 38.5v51q0 29 -8.5 38t-37.5 10l1 -147h6zM191 667q90 0 127 -34q22 -21 30.5 -54.5t8.5 -95.5q0 -67 -16.5 -96t-58.5 -31q23 -8 38 -17.5t24 -24t12.5 -35t3.5 -49.5v-230h-137v260q0 15 -1.5 24t-6 14.5t-13 7.5t-22.5 2
h-6v-308h-146l-2 667h165z" />
    <glyph glyph-name="S" unicode="S" horiz-adv-x="367" 
d="M205 466l-1 59v8q0 34 -23 34q-15 0 -20.5 -12t-5.5 -44q0 -24 2 -35.5t9 -19.5q2 -3 4 -5t8.5 -7t19 -15t36.5 -28q38 -29 61 -51t35 -45.5t16 -53t4 -74.5q0 -62 -9 -95.5t-30 -54.5q-22 -21 -56 -32.5t-73 -11.5q-49 0 -86 17.5t-55 49.5q-23 40 -23 114v70h137v-91
q0 -29 5.5 -40t19.5 -11q30 0 30 55q0 31 -2 49t-12.5 33.5t-33 33.5t-64.5 49q-24 17 -39.5 34.5t-24.5 38.5t-12.5 49t-3.5 66q0 49 7.5 78t24.5 49q22 25 57 38.5t78 13.5q75 0 115 -36.5t40 -103.5v-73h-135z" />
    <glyph glyph-name="T" unicode="T" horiz-adv-x="325" 
d="M320 532h-84v-532h-147v532h-84v135h315v-135z" />
    <glyph glyph-name="U" unicode="U" horiz-adv-x="390" 
d="M367 196q0 -57 -8 -92.5t-25 -58.5q-46 -61 -139 -61q-50 0 -87.5 18t-57.5 52q-13 22 -20 57.5t-7 77.5v476h147l-1 -515q0 -26 5.5 -36.5t19.5 -10.5q15 0 20 11t5 45v506h147z" />
    <glyph glyph-name="V" unicode="V" horiz-adv-x="393" 
d="M305 0h-224l-75 667h160l35 -457l38 457h150z" />
    <glyph glyph-name="W" unicode="W" horiz-adv-x="597" 
d="M524 0h-186l-40 360l-45 -360h-185l-61 667h143l28 -444l45 444h152l35 -451l40 451h141z" />
    <glyph glyph-name="X" unicode="X" horiz-adv-x="372" 
d="M295 382l73 -382h-138l-43 238l-37 -238h-145l66 369l-57 298h146l29 -175l29 175h130z" />
    <glyph glyph-name="Y" unicode="Y" horiz-adv-x="365" 
d="M249 239v-239h-140v240l-102 425h137l36 -273l42 273h140z" />
    <glyph glyph-name="Z" unicode="Z" horiz-adv-x="293" 
d="M282 546l-112 -413h116v-133h-277l1 101l124 442h-109v123h257v-120z" />
    <glyph glyph-name="bracketleft" unicode="[" horiz-adv-x="352" 
d="M328 564h-120v-632h120v-103h-242v838h242v-103z" />
    <glyph glyph-name="backslash" unicode="\" horiz-adv-x="289" 
d="M289 0h-35l-254 680h35z" />
    <glyph glyph-name="bracketright" unicode="]" horiz-adv-x="352" 
d="M266 -171h-242v103h120v632h-120v103h242v-838z" />
    <glyph glyph-name="asciicircum" unicode="^" 
d="M1 367l192 300h113l193 -300h-109l-140 210l-140 -210h-109z" />
    <glyph glyph-name="underscore" unicode="_" 
d="M500 -186h-500v119h500v-119z" />
    <glyph glyph-name="grave" unicode="`" 
d="M384 519h-135l-133 155h174z" />
    <glyph glyph-name="a" unicode="a" horiz-adv-x="359" 
d="M191 255q-46 -28 -46 -84v-22v-18q-1 -41 24 -41q13 0 17.5 10t4.5 36v119zM195 0q1 5 2 17.5t1 17.5v2q0 1 -0.5 1.5t-0.5 2.5q-29 -53 -82 -53q-29 0 -54 16t-35 42q-5 14 -7 28.5t-2 35.5v66q0 27 5.5 46t20 34.5t40 29t65.5 29.5q17 6 28.5 17.5t14.5 23.5q1 5 1 11
v21v50q0 22 -4 30t-15 8t-15 -10t-4 -36l-1 -97h-128v62q0 76 43.5 118t121.5 42q151 0 151 -152l-2 -403h-144z" />
    <glyph glyph-name="b" unicode="b" horiz-adv-x="366" 
d="M167 147q0 -29 4 -39t17 -10t17 9t4 37v255q0 31 -4.5 42t-16.5 11q-15 0 -20 -17q-1 -3 -1 -7v-25v-256zM167 557v-7v-6.5t-1 -11.5l-2 -25v-6q24 32 43 44t48 12q28 0 50.5 -13t33.5 -35q10 -21 10 -71v-323q0 -22 -1.5 -35.5t-5.5 -27.5q-9 -29 -33.5 -46.5
t-56.5 -17.5q-52 0 -84 46l-8 -34h-138v666h145v-109z" />
    <glyph glyph-name="c" unicode="c" horiz-adv-x="350" 
d="M204 343l-1 75q0 25 -5 35.5t-16 10.5q-8 0 -14 -6t-7 -14q-1 -3 -1 -7v-18l1 -275q0 -32 5 -43t19 -11t19 11.5t5 46.5l1 82l129 -1q0 -34 -1.5 -58.5t-4.5 -43t-8 -32.5t-12 -27q-43 -75 -133 -75q-59 0 -99 27.5t-55 78.5q-5 15 -6.5 36t-1.5 60v170q0 94 43 144.5
t122 50.5q48 0 85.5 -22.5t54.5 -61.5q5 -11 8 -20t4.5 -21.5t2.5 -31.5t2 -50v-10h-136z" />
    <glyph glyph-name="d" unicode="d" horiz-adv-x="369" 
d="M160 144q0 -28 4.5 -37.5t15.5 -9.5q14 0 18.5 10t4.5 38v260q0 25 -5 34.5t-17 9.5t-16.5 -10t-4.5 -37v-258zM346 0h-145l2 32q-35 -46 -85 -46q-30 0 -55 15t-34 38q-7 16 -9.5 34.5t-2.5 49.5v270q0 47 2.5 69.5t10.5 37.5q12 25 35.5 39.5t50.5 14.5q47 0 88 -44
l-1 157h144z" />
    <glyph glyph-name="e" unicode="e" horiz-adv-x="361" 
d="M203 359l-1 68q0 38 -21 38q-23 0 -23 -39v-67h45zM159 270v-132v-9q0 -38 25 -38q14 0 19 10t5 39v92h137q1 -12 1.5 -22t0.5 -15q0 -100 -42.5 -150.5t-124.5 -50.5q-92 0 -135 67q-15 23 -20.5 46.5t-5.5 64.5v7l-1 176q0 40 3 62t12 43q21 50 59.5 75.5t91.5 25.5
q56 0 95.5 -29.5t53.5 -80.5q5 -14 7 -40.5t1 -58.5v-80z" />
    <glyph glyph-name="f" unicode="f" horiz-adv-x="225" 
d="M218 583q-14 2 -21 2h-10q-29 0 -29 -26v-7.5t2 -9.5h58l-1 -86h-37v-456h-142v458h-31v88l34 2v9q0 61 24 85.5t84 24.5h69v-84z" />
    <glyph glyph-name="g" unicode="g" horiz-adv-x="365" 
d="M160 240q0 -26 4.5 -35.5t17.5 -9.5q11 0 15.5 9.5t4.5 36.5v153q0 29 -4 38.5t-16 9.5q-14 0 -18 -9t-4 -36v-157zM343 77q0 -32 -6.5 -53.5t-21.5 -41.5q-22 -28 -58 -43.5t-80 -15.5q-48 0 -85.5 17t-54.5 45q-8 13 -10.5 28t-2.5 41l137 2q0 -26 5 -35.5t18 -9.5
q25 0 22 38v6l-2 64q-34 -39 -82 -39q-29 0 -54 15t-37 38q-7 14 -9.5 29.5t-2.5 43.5l-2 199q0 24 0.5 39.5t1.5 26t3.5 18t5.5 14.5q13 26 36.5 41t52.5 15q23 0 43.5 -9.5t31.5 -25.5q3 -5 4.5 -5.5t4.5 -2.5l7 34h135v-473z" />
    <glyph glyph-name="h" unicode="h" horiz-adv-x="365" 
d="M164 579v-5v-28v-16t-2 -11q49 42 92 42q26 0 50.5 -17.5t34.5 -43.5q5 -11 7 -27.5t1 -42.5v-430h-141v405q0 26 -4.5 35.5t-16.5 9.5q-13 0 -18 -11t-5 -37l-1 -402h-138v667h141v-88z" />
    <glyph glyph-name="i" unicode="i" horiz-adv-x="193" 
d="M168 0h-144v547h144v-547zM168 587h-144l-1 80h147z" />
    <glyph glyph-name="j" unicode="j" horiz-adv-x="193" 
d="M168 69q0 -27 -0.5 -43t-2 -26.5t-5 -17.5t-9.5 -16q-14 -21 -37.5 -32t-53.5 -10l-68 2l2 83l5 1q19 1 23 5.5t4 26.5v505h142v-478zM166 587h-140l-2 80h145z" />
    <glyph glyph-name="k" unicode="k" horiz-adv-x="348" 
d="M165 667v-297l46 175h122l-58 -217l69 -328h-134l-43 250l-1 -250h-143v667h142z" />
    <glyph glyph-name="l" unicode="l" horiz-adv-x="190" 
d="M166 0h-143v667h143v-667z" />
    <glyph glyph-name="m" unicode="m" horiz-adv-x="553" 
d="M165 544l-2 -43q17 30 37.5 43.5t48.5 13.5q29 0 54.5 -15.5t36.5 -39.5q37 55 91 55q37 0 63 -22t33 -59q2 -9 2.5 -21t0.5 -40l-1 -416h-139l-1 392q0 29 -4 38.5t-16 9.5q-13 0 -18 -12.5t-5 -41.5l-1 -386h-138l-1 402q0 37 -19 37q-24 0 -24 -32v-8v-399h-140v544
h142z" />
    <glyph glyph-name="n" unicode="n" horiz-adv-x="377" 
d="M166 545l-2 -43q38 56 92 56q34 0 60.5 -21.5t34.5 -54.5q2 -8 3 -23t1 -32l-1 -427h-144v393q0 34 -4 45t-17 11t-17.5 -9t-4.5 -35v-405h-143v545h142z" />
    <glyph glyph-name="o" unicode="o" horiz-adv-x="363" 
d="M161 141q0 -23 4.5 -31t17.5 -8q11 0 15.5 8.5t4.5 28.5v285q0 23 -4 30.5t-16 7.5q-13 0 -17.5 -9.5t-4.5 -35.5v-276zM346 196q0 -32 -4 -62t-10 -47q-17 -45 -57 -69.5t-94 -24.5q-60 0 -102.5 30.5t-55.5 84.5q-2 7 -3 15.5t-2 19.5t-1 26.5v37.5v159
q0 93 43.5 143.5t122.5 50.5q52 0 91 -23.5t56 -64.5q7 -16 11.5 -47t4.5 -59v-170z" />
    <glyph glyph-name="p" unicode="p" horiz-adv-x="362" 
d="M163 154q0 -24 5 -34t17 -10q11 0 15 9.5t4 34.5v261q0 27 -4 35.5t-16 8.5t-16.5 -9.5t-4.5 -37.5v-258zM161 547l-3 -39q15 16 27 26t23 16t21.5 8.5t24.5 2.5q32 0 55.5 -19.5t32.5 -53.5q2 -10 3 -20.5t1 -37.5v-300q0 -22 -1 -34.5t-5 -26.5q-9 -34 -33.5 -54.5
t-56.5 -20.5q-26 0 -45.5 13t-45.5 45q1 -13 1.5 -26t0.5 -19v-82h-138v622h138z" />
    <glyph glyph-name="q" unicode="q" horiz-adv-x="368" 
d="M157 151q0 -25 4.5 -34.5t15.5 -9.5q13 0 18 10t5 34v258q0 28 -4.5 37.5t-18.5 9.5q-12 0 -16 -8.5t-4 -35.5v-261zM343 -76h-144v80q0 5 0.5 19t1.5 27q-35 -59 -87 -59q-37 0 -62 23t-33 62q-2 11 -3 21t-1 30v300q0 34 1.5 47.5t8.5 27.5q25 55 87 55q29 0 49 -11.5
t41 -40.5l4 43h137v-624z" />
    <glyph glyph-name="r" unicode="r" horiz-adv-x="261" 
d="M164 547l-4 -61q3 1 3 2l3 4l4 8q13 26 34.5 42.5t43.5 16.5h2l-1 -192q-24 0 -40.5 -4t-26 -14.5t-13.5 -28t-4 -44.5v-276h-142v547h141z" />
    <glyph glyph-name="s" unicode="s" horiz-adv-x="339" 
d="M192 372v44q0 25 -3.5 32t-16.5 7q-23 0 -25 -28l-1 -19v-9q0 -10 1 -15.5t6.5 -11.5t17 -14t33.5 -22q47 -31 67 -45.5t29 -25.5q14 -17 19.5 -38.5t5.5 -59.5q0 -51 -6.5 -80.5t-23.5 -49.5q-38 -48 -127 -48q-75 0 -114 36t-39 106v61h127l-1 -60q0 -23 5 -32.5
t19 -9.5q30 0 28 35v7l-1 19q0 11 -1.5 19t-6.5 14.5t-13.5 13t-22.5 14.5q-64 37 -100 75q-17 18 -24 41t-7 58q0 73 18 105q17 30 55 48t84 18q45 0 81.5 -19t53.5 -51q6 -11 7.5 -21t1.5 -34v-60h-126z" />
    <glyph glyph-name="t" unicode="t" horiz-adv-x="227" 
d="M181 547q5 1 8 1t14 1q5 1 12 1h5v-93h-5h-15h-17h-2l-1 -332v-20t1 -6q2 -4 7 -6t10 -2h4l20 -1v-90h-66q-45 -1 -69.5 8.5t-36.5 29.5q-8 14 -11 38t-3 74v308l-31 -1v91l32 -1v88h144v-88z" />
    <glyph glyph-name="u" unicode="u" horiz-adv-x="377" 
d="M212 0l2 43q-20 -29 -42 -42.5t-50 -13.5q-35 0 -61 20.5t-34 55.5q-2 9 -3 20.5t-1 34.5l1 427h144v-393q0 -34 4 -45t17 -11t17.5 9.5t4.5 34.5v405h143v-545h-142z" />
    <glyph glyph-name="v" unicode="v" horiz-adv-x="325" 
d="M244 0h-184l-61 545h133l33 -397l37 397h121z" />
    <glyph glyph-name="w" unicode="w" horiz-adv-x="497" 
d="M132 547l25 -323l37 323h119l25 -301l38 301h117l-64 -547h-155l-26 260l-37 -260h-155l-52 547h128z" />
    <glyph glyph-name="x" unicode="x" horiz-adv-x="320" 
d="M257 288l62 -288h-123l-28 185l-33 -185h-134l66 291l-52 256h126l28 -178l31 178h119z" />
    <glyph glyph-name="y" unicode="y" horiz-adv-x="326" 
d="M265 74q-7 -51 -16 -82.5t-25 -48t-43 -21t-70 -3.5l-94 1v80h6q16 0 26.5 1t13.5 3q13 6 13 21q0 2 -1.5 13.5t-4.5 27t-6 33.5t-6 33l-58 415h135l37 -380l35 380h118z" />
    <glyph glyph-name="z" unicode="z" horiz-adv-x="257" 
d="M248 546v-113l-103 -323h106v-110h-247v112l109 328h-98v106h233z" />
    <glyph glyph-name="braceleft" unicode="{" horiz-adv-x="352" 
d="M223 375q0 -30 -5.5 -54.5t-16.5 -38.5q-6 -8 -13.5 -15t-24.5 -19q34 -22 47 -49.5t13 -76.5v-123q-1 -34 0.5 -52.5t11 -27.5t30 -10.5t57.5 -1.5v-91q-26 -2 -38 -2h-23q-82 0 -116.5 33t-34.5 111v154q0 45 -12 64.5t-43 25.5v93q32 7 43.5 25.5t11.5 63.5v155
q0 78 34.5 111t116.5 33q12 0 25 -0.5t36 -1.5v-91h-21q-23 0 -38.5 -2t-22.5 -7q-6 -3 -9.5 -6.5t-5 -11.5t-2 -23t-0.5 -42v-123z" />
    <glyph glyph-name="bar" unicode="|" 
d="M300 667v-834h-100v834h100z" />
    <glyph glyph-name="braceright" unicode="}" horiz-adv-x="352" 
d="M129 122q0 30 5.5 54.5t16.5 38.5q6 8 13.5 15t24.5 18q-35 22 -47.5 49.5t-12.5 77.5v123v34.5t-0.5 19t-1.5 9.5t-3 6q-6 14 -21.5 18.5t-53.5 4.5h-20v91q30 2 40.5 2h21.5q82 0 116.5 -33t34.5 -111v-155q0 -44 12 -63.5t42 -25.5v-93q-32 -7 -43 -26t-11 -64v-154
q0 -78 -34.5 -111t-116.5 -33q-13 0 -28 0.5t-34 1.5v91q37 0 57.5 1.5t30.5 10.5t11.5 27.5t0.5 52.5v123z" />
    <glyph glyph-name="asciitilde" unicode="~" 
d="M499 606q-20 -32 -36.5 -54t-33 -35.5t-34 -19t-37.5 -5.5q-11 0 -19 1t-22.5 5.5t-40.5 15t-73 30.5q-23 9 -33.5 12t-22.5 3q-13 0 -24 -4t-21.5 -14t-21.5 -26t-24 -41l-54 63q38 67 70 93.5t74 26.5q21 0 47.5 -8t73.5 -28q25 -11 40 -17t24 -9t14.5 -4t12.5 -1
q12 0 22 4t20.5 13t21 23.5t23.5 36.5z" />
    <glyph glyph-name="uni00A0" unicode="&#xa0;" horiz-adv-x="133" 
 />
    <glyph glyph-name="exclamdown" unicode="&#xa1;" horiz-adv-x="219" 
d="M61 583h129v-130h-129v130zM69 419h109l20 -501h-154z" />
    <glyph glyph-name="cent" unicode="&#xa2;" horiz-adv-x="410" 
d="M239 665v-41q37 -8 63 -22.5t41.5 -39t22 -61.5t5.5 -88l-134 -3v70v11q1 41 -23 41q-14 0 -18.5 -10.5t-4.5 -40.5v-271q0 -33 4.5 -43.5t20.5 -10.5q14 0 20 12.5t5 42.5v1l2 83l126 -2q5 -108 -27.5 -163.5t-106.5 -69.5v-59h-41v59q-36 2 -69.5 21t-53.5 51
q-13 19 -17.5 44.5t-4.5 75.5v176q0 92 35 139t112 59v39h43z" />
    <glyph glyph-name="sterling" unicode="&#xa3;" horiz-adv-x="366" 
d="M208 437l1 74q1 33 -5 47.5t-20 14.5q-32 0 -32 -53q0 -10 0.5 -17t2 -16.5t4.5 -23.5t9 -38q5 -24 7.5 -38t1.5 -25h91v-114l-85 1q-2 -111 -66 -168q11 2 17 2h12q7 0 11.5 -0.5t22.5 -4.5q5 -1 14 -1q19 0 26.5 14.5t7.5 50.5v25l116 -1l2 -50l1 -37q0 -54 -28 -82.5
t-82 -28.5q-18 0 -33 3t-39 12q-26 9 -43 12.5t-37 3.5q-43 0 -80 -28v99q10 6 19 22.5t16.5 38.5t12 47t4.5 49q0 3 -0.5 9t-1.5 14h-48v101l37 1q-10 30 -15.5 49t-8.5 32.5t-3.5 25.5t-0.5 28q0 85 42.5 131.5t120.5 46.5q76 0 118.5 -45t42.5 -126v-25t-2 -32h-130z" />
    <glyph glyph-name="currency" unicode="&#xa4;" horiz-adv-x="667" 
d="M335 514q-29 0 -54 -10.5t-44 -29t-29.5 -43.5t-10.5 -54q0 -28 10.5 -53t29 -43.5t43.5 -29t53 -10.5t53 10.5t43.5 29.5t29 43.5t10.5 53.5q0 28 -10.5 52.5t-29 43t-43 29.5t-51.5 11zM123 240q-44 63 -44 138q0 38 10.5 70t33.5 67l-104 104l71 71l104 -104
q35 23 68 33.5t72 10.5q38 0 70 -10t67 -33l103 102l70 -70l-102 -102q25 -39 35 -70.5t10 -69.5q0 -37 -10 -69t-33 -67l103 -103l-70 -71l-103 103q-34 -23 -69 -34t-73 -11q-37 0 -69 10t-70 34l-103 -102l-70 70z" />
    <glyph glyph-name="yen" unicode="&#xa5;" horiz-adv-x="520" 
d="M335 411v-101h-67l-17 -66h84v-101h-86v-143h-140v143h-78v102h77l-16 65h-61v101h37l-61 254h137l40 -276l38 276h139l-67 -254h41z" />
    <glyph glyph-name="brokenbar" unicode="&#xa6;" 
d="M300 238v-405h-100v405h100zM300 667v-247h-100v247h100z" />
    <glyph glyph-name="section" unicode="&#xa7;" horiz-adv-x="399" 
d="M214 188q8 11 9.5 16.5t1.5 20.5q0 21 -1.5 34t-5.5 23t-12.5 18t-21.5 19q-8 -11 -9.5 -16.5t-1.5 -20.5q0 -21 1.5 -34t5.5 -23t12 -18.5t22 -18.5zM179 -41q0 -20 5 -27.5t18 -7.5q15 0 20.5 10t5.5 39q0 27 -5.5 37.5t-25.5 23.5q-45 27 -79 51.5t-47 37.5
q-22 23 -30 52t-8 83q0 30 1.5 49.5t7 33t16 24t27.5 22.5q-30 25 -41 54t-11 82q0 44 7.5 69t24.5 42q22 22 56.5 33.5t78.5 11.5q75 0 115 -31t40 -88v-62h-135l-1 50q0 20 -5 27.5t-18 7.5q-15 0 -20.5 -10t-5.5 -39q0 -27 5.5 -37.5t25.5 -23.5q44 -26 79 -51t47 -38
q22 -23 30 -52t8 -83q0 -30 -2 -49.5t-7.5 -33t-15.5 -24t-27 -22.5q16 -14 26 -27t16 -28t8 -34.5t2 -46.5q0 -44 -7.5 -69t-24.5 -42q-22 -22 -56.5 -33.5t-78.5 -11.5q-75 0 -115 31t-40 88v62h135z" />
    <glyph glyph-name="dieresis" unicode="&#xa8;" 
d="M414 540h-127v127h127v-127zM211 540h-126v127h126v-127z" />
    <glyph glyph-name="copyright" unicode="&#xa9;" horiz-adv-x="767" 
d="M390 366v74q0 17 -3.5 23.5t-12.5 6.5q-10 0 -13 -6.5t-3 -26.5v-211q0 -23 3 -30.5t13 -7.5q8 0 11.5 6.5t3.5 23.5v83h89v-62q0 -59 -27 -89.5t-79 -30.5q-57 0 -80 32t-23 112v139q0 72 24.5 104t79.5 32q105 0 105 -124v-48h-88zM385 613q-59 0 -110 -21.5t-89 -59.5
t-59.5 -89t-21.5 -110q0 -58 21.5 -109t59 -89t88 -60t107.5 -22t107 22t87.5 60t59 89t21.5 109q0 57 -21.5 108t-58.5 89.5t-86.5 60.5t-104.5 22zM387 683q71 0 134 -27.5t110 -75t74.5 -111t27.5 -135.5t-27.5 -136t-75 -111.5t-111.5 -75t-136 -27.5t-136 27.5
t-111.5 75t-75 111t-27.5 135.5q0 73 27.5 137t75.5 111t112.5 74.5t138.5 27.5z" />
    <glyph glyph-name="ordfeminine" unicode="&#xaa;" horiz-adv-x="323" 
d="M163 533q-27 -17 -27 -50v-14v-10q0 -25 14 -25q8 0 10.5 5.5t2.5 22.5v71zM166 380l1 21v4q-17 -32 -49 -32q-27 0 -43.5 19t-15.5 51v3v40q0 16 3.5 27.5t12 20.5t24 17.5t39.5 17.5q15 6 20.5 15t5.5 29v30q0 14 -2.5 19t-8.5 5q-7 0 -9.5 -6t-2.5 -22v-59h-77v38
q0 45 25.5 70.5t72.5 25.5q91 0 91 -92l-1 -242h-86zM319 272h-306v56h306v-56z" />
    <glyph glyph-name="guillemotleft" unicode="&#xab;" horiz-adv-x="565" 
d="M446 229l78 -179h-123l-115 179l115 183h123zM193 229l79 -179h-123l-116 179l116 183h123z" />
    <glyph glyph-name="logicalnot" unicode="&#xac;" 
d="M405 188h-398v89h487v-277h-89v188z" />
    <glyph glyph-name="uni00AD" unicode="&#xad;" horiz-adv-x="287" 
d="M254 271h-221v130h221v-130z" />
    <glyph glyph-name="registered" unicode="&#xae;" horiz-adv-x="767" 
d="M377 384h8q8 0 11.5 6t3.5 23v30q0 18 -5 23.5t-22 6.5v-89h4zM383 536q29 0 48.5 -5t31 -17.5t16 -34t4.5 -53.5q0 -41 -10 -58t-35 -19q28 -9 37.5 -24.5t9.5 -50.5v-138h-82v156q0 18 -5 23.5t-23 5.5h-2v-185h-87l-2 400h99zM385 613q-59 0 -110 -21.5t-89 -59.5
t-59.5 -89t-21.5 -110q0 -58 21.5 -109t59 -89t88 -60t107.5 -22t107 22t87.5 60t59 89t21.5 109q0 57 -21.5 108t-58.5 89.5t-86.5 60.5t-104.5 22zM387 683q71 0 134 -27.5t110 -75t74.5 -111t27.5 -135.5t-27.5 -136t-75 -111.5t-111.5 -75t-136 -27.5t-136 27.5
t-111.5 75t-75 111t-27.5 135.5q0 73 27.5 137t75.5 111t112.5 74.5t138.5 27.5z" />
    <glyph glyph-name="macron" unicode="&#xaf;" 
d="M414 556h-328v102h328v-102z" />
    <glyph glyph-name="degree" unicode="&#xb0;" 
d="M250 612q-37 0 -62 -25t-25 -62q0 -18 7 -33.5t18.5 -27t27 -18.5t33.5 -7q36 0 61 25.5t25 61.5q0 18 -7 33.5t-18.5 27t-27 18.5t-32.5 7zM252 684q33 0 63 -12.5t52 -34t35 -50.5t13 -61q0 -33 -13 -62t-35.5 -50.5t-52.5 -34t-64 -12.5t-64 12.5t-52.5 34t-35.5 50
t-13 61.5t13 62t35.5 50.5t53 34t65.5 12.5z" />
    <glyph glyph-name="plusminus" unicode="&#xb1;" 
d="M494 145v-100h-487v100h487zM200 465v183h100v-183h194v-100h-194v-177h-100v177h-193v100h193z" />
    <glyph glyph-name="uni00B2" unicode="&#xb2;" horiz-adv-x="225" 
d="M19 559q-1 4 -1 8v6q0 105 100 105q46 0 71.5 -22t25.5 -61q0 -14 -1.5 -25t-6 -22t-13 -24t-21.5 -31l-64 -97h99v-56h-191v49l82 131q35 55 35 79q0 25 -19 25q-11 0 -15.5 -9t-4.5 -32l-1 -24h-75z" />
    <glyph glyph-name="uni00B3" unicode="&#xb3;" horiz-adv-x="226" 
d="M15 601q0 27 8 43t34.5 26.5t57.5 10.5q48 0 70 -21.5t22 -68.5q0 -28 -7.5 -41t-27.5 -23q23 -8 31 -26.5t8 -64.5q0 -30 -3.5 -46t-13.5 -28q-23 -29 -80 -29q-55 0 -78 23t-23 77v37h81v-57q0 -19 3.5 -25t14.5 -6q9 0 12 5.5t3 21.5v38q0 26 -7.5 36t-27.5 11h-17v48
h16q23 1 29 7t6 28v29q0 15 -3.5 20.5t-11.5 5.5q-9 0 -12.5 -6.5t-3.5 -24.5l-1 -33h-79v33z" />
    <glyph glyph-name="acute" unicode="&#xb4;" 
d="M250 524h-133l92 156h173z" />
    <glyph glyph-name="mu" unicode="&#xb5;" 
d="M30 487h122v-259q0 -34 2.5 -51t9.5 -32q13 -26 36 -41t52 -15q33 0 57 19t34 53q3 12 4.5 28.5t1.5 41.5v256h122v-487h-122v56q-20 -38 -42 -53.5t-56 -15.5t-56.5 15t-42.5 50v-225h-122v660z" />
    <glyph glyph-name="paragraph" unicode="&#xb6;" horiz-adv-x="614" 
d="M257 323h-13q-39 0 -72 12.5t-56 35t-36 53.5t-13 69q0 52 22.5 91.5t64.5 59.5q24 12 62 18.5t82 6.5h249v-59h-49v-700h-78v700h-83v-700h-80v413z" />
    <glyph glyph-name="periodcentered" unicode="&#xb7;" horiz-adv-x="133" 
d="M118 223h-103v100h103v-100z" />
    <glyph glyph-name="cedilla" unicode="&#xb8;" horiz-adv-x="247" 
d="M181 -57v-81q0 -41 -10 -62.5t-35 -34.5q-12 -6 -27 -8.5t-42 -2.5v61q20 2 27.5 12t8.5 37h-36v79h114z" />
    <glyph glyph-name="uni00B9" unicode="&#xb9;" horiz-adv-x="150" 
d="M144 340h-83v200q0 26 -5.5 32.5t-28.5 6.5l-24 1v37q29 7 55 22t40 34h46v-333z" />
    <glyph glyph-name="ordmasculine" unicode="&#xba;" horiz-adv-x="343" 
d="M161 466q0 -14 2.5 -18.5t9.5 -4.5q12 0 12 22v171q0 14 -2 18.5t-9 4.5q-8 0 -10.5 -5.5t-2.5 -21.5v-166zM271 500q0 -42 -9 -66q-10 -26 -33.5 -41t-55.5 -15q-36 0 -62 18.5t-34 50.5q-2 8 -2.5 20.5t-0.5 38.5v95q0 56 26 86.5t74 30.5q30 0 53.5 -14.5t34.5 -38.5
q4 -9 6.5 -28t2.5 -36v-101zM330 272h-306v56h306v-56z" />
    <glyph glyph-name="guillemotright" unicode="&#xbb;" horiz-adv-x="565" 
d="M532 229l-115 -181h-124l79 181l-79 184h124zM279 229l-114 -181h-125l79 181l-79 184h125z" />
    <glyph glyph-name="onequarter" unicode="&#xbc;" horiz-adv-x="501" 
d="M302 115h40v143zM423 117h24v-57h-25v-60h-83v59h-98v53l75 221h107v-216zM84 0h-78l362 651h77zM144 340h-83v200q0 26 -5.5 32.5t-28.5 6.5l-24 1v37q29 7 55 22t40 34h46v-333z" />
    <glyph glyph-name="onehalf" unicode="&#xbd;" horiz-adv-x="501" 
d="M295 219q-1 4 -1 8v6q0 105 100 105q46 0 71.5 -22t25.5 -60q0 -14 -1.5 -25t-6 -22.5t-13 -24.5t-21.5 -31l-64 -97h99v-56h-191v49l82 131q35 55 35 79q0 25 -19 25q-11 0 -15.5 -9t-4.5 -32l-1 -24h-75zM84 0h-78l362 651h77zM144 340h-83v200q0 26 -5.5 32.5
t-28.5 6.5l-24 1v37q29 7 55 22t40 34h46v-333z" />
    <glyph glyph-name="threequarters" unicode="&#xbe;" horiz-adv-x="529" 
d="M15 601q0 27 8 43t34.5 26.5t58.5 10.5q48 0 70 -21.5t22 -68.5q0 -28 -7.5 -41t-27.5 -23q23 -8 31 -26.5t8 -64.5q0 -30 -3.5 -46t-13.5 -28q-23 -29 -81 -29q-55 0 -78 23t-23 77v37h81v-57q0 -19 3.5 -25t14.5 -6q9 0 12.5 5.5t3.5 21.5v38q0 26 -8 36t-28 11h-17v48
h16q23 1 29.5 7t6.5 28v29q0 15 -3.5 20.5t-12.5 5.5t-12.5 -6.5t-3.5 -24.5l-1 -33h-79v33zM329 115h40v143zM450 117h24v-57h-25v-60h-83v59h-98v53l75 221h107v-216zM112 0h-78l362 651h76z" />
    <glyph glyph-name="questiondown" unicode="&#xbf;" horiz-adv-x="364" 
d="M209 593h131v-133h-131v133zM209 428h131v-182h-130v6q0 14 -7 22t-18 8q-16 0 -21 -12.5t-5 -48.5v-151q0 -34 4.5 -45t18.5 -11q15 0 21 11.5t6 40.5v82h137q0 -32 -1 -56t-3.5 -42t-7 -31.5t-10.5 -24.5q-20 -36 -59 -56.5t-87 -20.5q-158 0 -158 188v114q0 54 6 84.5
t21 52.5q28 45 82 45q24 0 41.5 -9.5t38.5 -32.5v69z" />
    <glyph glyph-name="Agrave" unicode="&#xc0;" horiz-adv-x="371" 
d="M320 734h-135l-133 155h175zM158 238h50l-21 280zM292 667l77 -667h-149l-8 119h-54l-8 -119h-146l73 667h215z" />
    <glyph glyph-name="Aacute" unicode="&#xc1;" horiz-adv-x="371" 
d="M187 733h-133l92 156h173zM158 238h50l-21 280zM292 667l77 -667h-149l-8 119h-54l-8 -119h-146l73 667h215z" />
    <glyph glyph-name="Acircumflex" unicode="&#xc2;" horiz-adv-x="371" 
d="M376 734h-131l-55 84l-59 -84h-134l112 153h170zM158 238h50l-22 280zM292 667l77 -667h-149l-8 119h-54l-8 -119h-146l73 667h215z" />
    <glyph glyph-name="Atilde" unicode="&#xc3;" horiz-adv-x="371" 
d="M378 866q-5 -61 -34.5 -97t-76.5 -36q-22 0 -44 7t-55 24q-20 11 -31 14.5t-21 3.5q-29 0 -35 -29h-86q3 31 8 48.5t18 34.5q33 48 98 48q12 0 21.5 -1t18.5 -4t20.5 -9t28.5 -15q16 -10 28 -14t22 -4q25 0 29 29h91zM158 238h51l-22 280zM292 667l77 -667h-149l-8 119
h-53l-8 -119h-147l73 667h215z" />
    <glyph glyph-name="Adieresis" unicode="&#xc4;" horiz-adv-x="371" 
d="M351 733h-127v127h127v-127zM148 733h-126v127h126v-127zM158 238h50l-21 280zM292 667l77 -667h-149l-8 119h-54l-8 -119h-146l73 667h215z" />
    <glyph glyph-name="Aring" unicode="&#xc5;" horiz-adv-x="371" 
d="M186 866q-21 0 -34 -12.5t-13 -33.5q0 -22 13.5 -35.5t34.5 -13.5q20 0 33 13.5t13 33.5q0 22 -12.5 35t-34.5 13zM187 902q47 0 76 -24t29 -62q0 -36 -29 -59.5t-74 -23.5q-47 0 -77.5 24t-30.5 62q0 36 29.5 59.5t76.5 23.5zM158 238h50l-21 280zM292 667l77 -667h-149
l-8 119h-54l-8 -119h-146l73 667h215z" />
    <glyph glyph-name="AE" unicode="&#xc6;" horiz-adv-x="548" 
d="M532 531h-105v-124h94v-125h-94v-149h111v-133h-257v119h-100l-29 -119h-151l190 667l341 -1v-135zM208 238h73v282z" />
    <glyph glyph-name="Ccedilla" unicode="&#xc7;" horiz-adv-x="388" 
d="M251 -39v-81q0 -28 -4 -44.5t-13 -28.5q-27 -35 -84 -35h-13v61q20 2 27.5 12.5t8.5 36.5h-36v79h114zM225 393v124q0 27 -6 38t-20 11q-20 0 -25 -20q-2 -3 -2 -9.5v-24.5v-351q0 -37 5 -49.5t21 -12.5q14 0 19.5 11t5.5 37v139h148v-103q0 -99 -44.5 -149.5
t-131.5 -50.5q-129 0 -160 111q-11 39 -11 129v231q0 53 4.5 83t16.5 54q43 88 152 88q51 0 88.5 -18t57.5 -52q14 -23 21 -58t7 -78v-80h-146z" />
    <glyph glyph-name="Egrave" unicode="&#xc8;" horiz-adv-x="290" 
d="M286 733h-135l-133 155h174zM275 667v-135h-105v-125h94v-125h-94v-149h111v-133h-257v667h251z" />
    <glyph glyph-name="Eacute" unicode="&#xc9;" horiz-adv-x="290" 
d="M152 733h-133l92 156h173zM274 667v-135h-105v-125h95v-125h-95v-149h111v-133h-257v667h251z" />
    <glyph glyph-name="Ecircumflex" unicode="&#xca;" horiz-adv-x="290" 
d="M342 733h-131l-55 84l-59 -84h-134l112 153h170zM275 667v-135h-105v-125h94v-125h-94v-149h111v-133h-257v667h251z" />
    <glyph glyph-name="Edieresis" unicode="&#xcb;" horiz-adv-x="290" 
d="M316 733h-127v127h127v-127zM113 733h-126v127h126v-127zM274 667v-135h-105v-125h95v-125h-95v-149h111v-133h-257v667h251z" />
    <glyph glyph-name="Igrave" unicode="&#xcc;" horiz-adv-x="195" 
d="M231 733h-135l-133 155h174zM172 0h-149v667h149v-667z" />
    <glyph glyph-name="Iacute" unicode="&#xcd;" horiz-adv-x="195" 
d="M97 732h-133l92 156h173zM171 0h-149v667h149v-667z" />
    <glyph glyph-name="Icircumflex" unicode="&#xce;" horiz-adv-x="195" 
d="M286 733h-131l-55 84l-59 -84h-134l112 153h170zM171 0h-149v667h149v-667z" />
    <glyph glyph-name="Idieresis" unicode="&#xcf;" horiz-adv-x="195" 
d="M261 732h-127v127h127v-127zM58 732h-126v127h126v-127zM171 0h-149v667h149v-667z" />
    <glyph glyph-name="Eth" unicode="&#xd0;" horiz-adv-x="390" 
d="M171 116h9q24 -1 31 9t7 43v318q0 25 -1 39t-5.5 21t-14 8.5t-26.5 1.5v-129h25v-150h-25v-161zM-3 277v150h26v240h178q51 0 83 -10t53 -32q10 -10 16 -21t9.5 -28t4.5 -42.5t1 -65.5l-1 -317v-4q0 -57 -12.5 -87t-41.5 -45q-30 -15 -81 -15h-209v277h-26z" />
    <glyph glyph-name="Ntilde" unicode="&#xd1;" horiz-adv-x="379" 
d="M381 866q-5 -62 -34.5 -98t-76.5 -36q-22 0 -44 7t-55 24q-20 11 -31 14.5t-21 3.5q-29 0 -35 -29h-86q3 32 8 49.5t18 34.5q34 48 98 48q12 0 21.5 -1t19 -4t20.5 -9t28 -15q16 -10 28 -14t22 -4q25 0 29 29h91zM356 0h-124l-82 300l-4 -300h-122v667h132l76 -309l1 309
h122z" />
    <glyph glyph-name="Ograve" unicode="&#xd2;" horiz-adv-x="393" 
d="M331 748h-135l-133 155h174zM171 156q0 -32 5.5 -43.5t20.5 -11.5q13 0 18.5 11.5t5.5 38.5v361q0 35 -5 46.5t-19 11.5q-15 0 -20.5 -12.5t-5.5 -48.5v-353zM370 203q0 -105 -31 -152q-44 -65 -140 -65q-175 0 -175 198v304q0 94 44.5 143.5t128.5 49.5q54 0 94.5 -23.5
t59.5 -65.5q19 -39 19 -118v-271z" />
    <glyph glyph-name="Oacute" unicode="&#xd3;" horiz-adv-x="393" 
d="M197 748h-133l92 156h173zM171 156q0 -32 5.5 -43.5t20.5 -11.5q13 0 18.5 11.5t5.5 38.5v361q0 35 -5 46.5t-19 11.5q-15 0 -20.5 -12.5t-5.5 -48.5v-353zM370 203q0 -105 -31 -152q-44 -65 -140 -65q-175 0 -175 198v304q0 94 44.5 143.5t128.5 49.5q54 0 94.5 -23.5
t59.5 -65.5q19 -39 19 -118v-271z" />
    <glyph glyph-name="Ocircumflex" unicode="&#xd4;" horiz-adv-x="376" 
d="M356 165q0 -27 -1.5 -45.5t-6.5 -33.5q-14 -45 -57 -74.5t-97 -29.5q-50 0 -91.5 26t-58.5 68q-9 23 -13 49.5t-4 61.5v124h141v-160v-8q0 -20 5 -28t18 -8q11 0 15.5 8.5t3.5 28.5v8v513h146v-500z" />
    <glyph glyph-name="Otilde" unicode="&#xd5;" horiz-adv-x="393" 
d="M388 881q-5 -62 -34.5 -98t-76.5 -36q-22 0 -44 7t-55 24q-20 11 -31 14.5t-21 3.5q-29 0 -35 -29h-86q3 32 8 49.5t18 34.5q34 48 98 48q12 0 21.5 -1t19 -4t20.5 -9t28 -15q16 -10 28 -14t22 -4q25 0 29 29h91zM171 156q0 -32 5.5 -43.5t19.5 -11.5q13 0 18.5 11.5
t5.5 38.5v361q0 35 -5 46.5t-19 11.5t-19.5 -13t-5.5 -48v-353zM369 203q0 -105 -31 -152q-44 -65 -140 -65q-174 0 -174 198v304q0 94 44.5 143.5t127.5 49.5q54 0 94.5 -23.5t59.5 -65.5q19 -39 19 -118v-271z" />
    <glyph glyph-name="Odieresis" unicode="&#xd6;" horiz-adv-x="393" 
d="M361 748h-127v127h127v-127zM158 748h-126v127h126v-127zM171 156q0 -32 5.5 -43.5t20.5 -11.5q13 0 18.5 11.5t5.5 38.5v361q0 35 -5 46.5t-19 11.5q-15 0 -20.5 -12.5t-5.5 -48.5v-353zM370 203q0 -105 -31 -152q-44 -65 -140 -65q-175 0 -175 198v304q0 94 44.5 143.5
t128.5 49.5q54 0 94.5 -23.5t59.5 -65.5q19 -39 19 -118v-271z" />
    <glyph glyph-name="multiply" unicode="&#xd7;" 
d="M250 419l156 157l75 -74l-157 -157l156 -155l-73 -74l-156 157l-156 -157l-75 74l157 156l-156 156l74 73z" />
    <glyph glyph-name="Oslash" unicode="&#xd8;" horiz-adv-x="393" 
d="M54 -16l-32 15l28 60q-8 17 -13.5 30.5t-8.5 27t-4 29.5t-1 38v304q0 94 44.5 143.5t128.5 49.5q38 0 64 -9.5t55 -32.5l20 43l33 -16l-26 -58q8 -17 13.5 -31t8.5 -28.5t4 -32.5t1 -42v-271q0 -105 -31 -152q-44 -65 -140 -65q-20 0 -36 2t-30 7t-27.5 13t-29.5 21z
M219 512q0 35 -5 46.5t-19 11.5t-19.5 -13t-5.5 -48v-193l49 123v73zM170 225v-69q0 -32 5.5 -43.5t19.5 -11.5q13 0 18.5 11.5t5.5 38.5v199z" />
    <glyph glyph-name="Ugrave" unicode="&#xd9;" horiz-adv-x="390" 
d="M329 732h-135l-133 155h174zM367 196q0 -57 -8 -92.5t-25 -58.5q-46 -61 -139 -61q-50 0 -87.5 18t-57.5 52q-13 22 -20 57.5t-7 77.5v476h147l-1 -515q0 -26 5.5 -36.5t19.5 -10.5q15 0 20 11t5 45v506h147z" />
    <glyph glyph-name="Uacute" unicode="&#xda;" horiz-adv-x="390" 
d="M196 731h-134l92 156h174zM367 196q0 -57 -8 -92.5t-25 -58.5q-46 -61 -139 -61q-50 0 -87.5 18t-57.5 52q-13 22 -20 57.5t-7 77.5v476h147l-1 -515q0 -26 5.5 -36.5t19.5 -10.5q15 0 20 11t5 45v506h147z" />
    <glyph glyph-name="Ucircumflex" unicode="&#xdb;" horiz-adv-x="390" 
d="M384 732h-131l-55 84l-59 -84h-134l112 153h170zM366 196q0 -57 -8 -92.5t-25 -58.5q-46 -61 -139 -61q-50 0 -87.5 18t-57.5 52q-13 22 -20 57.5t-7 77.5v476h147l-1 -515q0 -26 5.5 -36.5t19.5 -10.5q15 0 20 11t5 45v506h147z" />
    <glyph glyph-name="Udieresis" unicode="&#xdc;" horiz-adv-x="390" 
d="M360 731h-127v127h127v-127zM156 731h-126v127h126v-127zM367 196q0 -57 -8 -92.5t-25 -58.5q-46 -61 -139 -61q-50 0 -87.5 18t-57.5 52q-13 22 -20 57.5t-7 77.5v476h147l-1 -515q0 -26 5.5 -36.5t19.5 -10.5q15 0 20 11t5 45v506h147z" />
    <glyph glyph-name="Yacute" unicode="&#xdd;" horiz-adv-x="365" 
d="M185 732h-134l92 156h174zM249 239v-239h-140v240l-102 425h137l36 -273l42 273h140z" />
    <glyph glyph-name="Thorn" unicode="&#xde;" horiz-adv-x="408" 
d="M202 308h2q31 0 40 11t9 46v51q0 19 -1.5 30.5t-6.5 17.5t-14.5 8t-24.5 2h-4h-5v-166h5zM203 587h6h7q69 0 108.5 -15t56.5 -48q6 -11 9.5 -23.5t6 -30t3.5 -41t1 -55.5q0 -53 -8 -88.5t-27 -56.5t-51 -29.5t-81 -8.5h-11t-26 1v-192h-175v667h175v-80h6z" />
    <glyph glyph-name="germandbls" unicode="&#xdf;" horiz-adv-x="426" 
d="M40 0v491q0 58 12 90.5t42 56.5q47 36 115 36q42 0 76 -14t56 -40q20 -23 29.5 -54.5t9.5 -78.5q0 -56 -16.5 -84.5t-54.5 -41.5q26 -11 42 -23.5t25 -33.5t12.5 -53.5t3.5 -81.5q0 -55 -8.5 -87t-28.5 -56q-17 -20 -42 -28t-70 -8h-16t-23 1v98l13 1q17 1 27 4.5
t15.5 13.5t7.5 28t2 47q0 45 -1.5 70t-8 37t-19.5 15t-36 3v104q4 -1 9 -1q24 0 34.5 19t10.5 64q0 48 -11 69t-37 21q-44 0 -44 -64v-520h-126z" />
    <glyph glyph-name="agrave" unicode="&#xe0;" horiz-adv-x="359" 
d="M313 622h-135l-133 155h174zM191 255q-46 -28 -46 -84v-22v-18q-1 -41 24 -41q13 0 17.5 10t4.5 36v119zM195 0q1 5 2 17.5t1 17.5v2q0 1 -0.5 1.5t-0.5 2.5q-29 -53 -82 -53q-29 0 -54 16t-35 42q-5 14 -7 28.5t-2 35.5v66q0 27 5.5 46t20 34.5t40 29t65.5 29.5
q17 6 28.5 17.5t14.5 23.5q1 5 1 11v21v50q0 22 -4 30t-15 8t-15 -10t-4 -36l-1 -97h-128v62q0 76 43.5 118t121.5 42q151 0 151 -152l-2 -403h-144z" />
    <glyph glyph-name="aacute" unicode="&#xe1;" horiz-adv-x="359" 
d="M180 622h-134l92 156h174zM191 255q-46 -28 -46 -84v-22v-18q-1 -41 24 -41q13 0 17.5 10t4.5 36v119zM195 0q1 5 2 17.5t1 17.5v2q0 1 -0.5 1.5t-0.5 2.5q-29 -53 -82 -53q-29 0 -54 16t-35 42q-5 14 -7 28.5t-2 35.5v66q0 27 5.5 46t20 34.5t40 29t65.5 29.5
q17 6 28.5 17.5t14.5 23.5q1 5 1 11v21v50q0 22 -4 30t-15 8t-15 -10t-4 -36l-1 -97h-128v62q0 76 43.5 118t121.5 42q151 0 151 -152l-2 -403h-144z" />
    <glyph glyph-name="acircumflex" unicode="&#xe2;" horiz-adv-x="359" 
d="M369 622h-131l-55 84l-59 -84h-134l112 153h170zM191 255q-46 -28 -46 -84v-22v-18q-1 -41 24 -41q13 0 17.5 10t4.5 36v119zM195 0q1 5 2 17.5t1 17.5v2q0 1 -0.5 1.5t-0.5 2.5q-29 -53 -82 -53q-46 0 -72.5 32t-25.5 86v4v66q0 27 5.5 46t20 34.5t40 29t65.5 29.5
q17 6 28.5 17.5t14.5 23.5q1 5 1 11v21v50q0 22 -4 30t-15 8t-15 -10t-4 -36l-1 -97h-128v62q0 76 43.5 118t121.5 42q151 0 151 -152l-2 -403h-144z" />
    <glyph glyph-name="atilde" unicode="&#xe3;" horiz-adv-x="359" 
d="M371 755q-5 -62 -34.5 -98t-76.5 -36q-22 0 -44.5 7t-54.5 24q-21 11 -31.5 15t-20.5 4q-29 0 -35 -30h-86q2 32 7.5 49.5t18.5 34.5q33 48 98 48q12 0 21.5 -1t18.5 -4t20.5 -9t28.5 -15q16 -10 28 -14t22 -4q25 0 29 29h91zM192 255q-46 -28 -46 -84v-22v-18
q-1 -41 24 -41q13 0 17.5 10t4.5 36v119zM196 0q1 5 2 17.5t1 17.5v2q0 1 -0.5 1.5t-0.5 2.5q-29 -53 -82 -53q-24 0 -45.5 11t-35.5 30q-18 26 -17 77v4v66q0 27 5 46.5t19.5 34.5t40 28.5t66.5 29.5q16 6 28 17.5t15 23.5q1 4 1 10.5v21.5v50q0 22 -4 30t-15 8t-15 -10
t-4 -36l-1 -97h-129v62q0 76 43.5 118t122.5 42q151 0 151 -152l-2 -403h-144z" />
    <glyph glyph-name="adieresis" unicode="&#xe4;" horiz-adv-x="359" 
d="M344 622h-127v127h127v-127zM141 622h-126v127h126v-127zM192 255q-46 -28 -46 -84v-22v-18q-1 -41 24 -41q13 0 17.5 10t4.5 36v119zM196 0q1 5 2 17.5t1 17.5v2q0 1 -0.5 1.5t-0.5 2.5q-29 -53 -82 -53q-24 0 -45.5 11t-35.5 30q-18 26 -17 77v4v66q0 27 5 46.5
t19.5 34.5t40 28.5t66.5 29.5q16 6 28 17.5t15 23.5q1 4 1 10.5v21.5v50q0 22 -4 30t-15 8t-15 -10t-4 -36l-1 -97h-129v62q0 76 43.5 118t122.5 42q151 0 151 -152l-2 -403h-144z" />
    <glyph glyph-name="aring" unicode="&#xe5;" horiz-adv-x="359" 
d="M179 754q-22 0 -34.5 -12.5t-12.5 -32.5q0 -22 13.5 -35.5t33.5 -13.5t33 13t13 33q0 22 -12.5 35t-33.5 13zM179 790q47 0 76 -23.5t29 -61.5q0 -36 -29 -59.5t-73 -23.5q-47 0 -77.5 24t-30.5 61q0 36 29.5 59.5t75.5 23.5zM191 255q-46 -28 -46 -84v-22v-18
q-1 -41 24 -41q13 0 17.5 10t4.5 36v119zM195 0q1 5 2 17.5t1 17.5v2q0 1 -0.5 1.5t-0.5 2.5q-29 -53 -82 -53q-29 0 -54 16t-35 42q-5 14 -7 28.5t-2 35.5v66q0 27 5.5 46t20 34.5t40 29t65.5 29.5q17 6 28.5 17.5t14.5 23.5q1 5 1 11v21v50q0 22 -4 30t-15 8t-15 -10
t-4 -36l-1 -97h-128v62q0 76 43.5 118t121.5 42q151 0 151 -152l-2 -403h-144z" />
    <glyph glyph-name="ae" unicode="&#xe6;" horiz-adv-x="537" 
d="M379 357l-1 68q0 38 -21 38q-10 0 -17.5 -10t-5.5 -22l1 -7v-67h44zM335 268v-132v-9q0 -38 25 -38q14 0 19 10t5 39v92h137q1 -12 1.5 -22t0.5 -15q0 -99 -42.5 -150t-124.5 -51q-51 0 -85 19t-57 61q-3 -4 -7 -12l-6 -12t-7 -12q-25 -48 -78 -48q-30 0 -55 16t-35 42
q-5 14 -7 28.5t-2 35.5v66q0 27 5.5 46t20 34.5t40 29t66.5 29.5q16 6 27.5 17.5t14.5 24.5q1 4 1 10.5v21.5v49q0 22 -4 30t-15 8t-15 -10t-4 -36l-1 -97h-128v63q0 75 43 117t120 42q26 0 47 -4t41 -14q35 22 83 22q57 0 96.5 -29t53.5 -81q5 -14 7 -40.5t1 -58.5v-81z
M191 256q-22 -14 -34 -36t-12 -49v-22v-8v-10q-2 -41 24 -41q13 0 17.5 10t4.5 37v119z" />
    <glyph glyph-name="ccedilla" unicode="&#xe7;" horiz-adv-x="350" 
d="M236 -34v-81q0 -28 -4 -44.5t-13 -28.5q-27 -35 -84 -35h-13v61q20 2 27.5 12.5t8.5 36.5h-36v79h114zM204 343l-1 75q0 25 -5 35.5t-16 10.5q-8 0 -14 -6t-7 -14q-1 -3 -1 -7v-18l1 -275q0 -32 5 -43t19 -11t19 11.5t5 46.5l1 82l129 -1q0 -34 -1.5 -58.5t-4.5 -43
t-8 -32.5t-12 -27q-43 -75 -133 -75q-59 0 -99 27.5t-55 78.5q-5 15 -6.5 36t-1.5 60v170q0 94 43 144.5t122 50.5q48 0 85.5 -22.5t54.5 -61.5q5 -11 8 -20t4.5 -21.5t2.5 -31.5t2 -50v-10h-136z" />
    <glyph glyph-name="egrave" unicode="&#xe8;" horiz-adv-x="361" 
d="M316 628h-135l-133 155h174zM203 359l-1 68q0 38 -21 38q-23 0 -23 -39v-67h45zM159 270v-132v-9q0 -38 25 -38q14 0 19 10t5 39v92h137q1 -12 1.5 -22t0.5 -15q0 -100 -42.5 -150.5t-124.5 -50.5q-92 0 -135 67q-15 23 -20.5 46.5t-5.5 64.5v7l-1 176q0 40 3 62t12 43
q21 50 59.5 75.5t91.5 25.5q56 0 95.5 -29.5t53.5 -80.5q5 -14 7 -40.5t1 -58.5v-80z" />
    <glyph glyph-name="eacute" unicode="&#xe9;" horiz-adv-x="361" 
d="M183 627h-133l92 156h173zM203 359l-1 68q0 38 -21 38q-23 0 -23 -39v-67h45zM159 270v-132v-9q0 -38 25 -38q14 0 19 10t5 39v92h137q1 -12 1.5 -22t0.5 -15q0 -100 -42.5 -150.5t-124.5 -50.5q-92 0 -135 67q-15 23 -20.5 46.5t-5.5 64.5v7l-1 176q0 40 3 62t12 43
q21 50 59.5 75.5t91.5 25.5q56 0 95.5 -29.5t53.5 -80.5q5 -14 7 -40.5t1 -58.5v-80z" />
    <glyph glyph-name="ecircumflex" unicode="&#xea;" horiz-adv-x="361" 
d="M372 627h-131l-55 84l-59 -84h-134l112 153h170zM203 359l-1 68q0 38 -21 38q-23 0 -23 -39v-67h45zM159 270v-132v-9q0 -38 25 -38q14 0 19 10t5 39v92h137q1 -12 1.5 -22t0.5 -15q0 -100 -42.5 -150.5t-124.5 -50.5q-92 0 -135 67q-15 23 -20.5 47t-5.5 64v7l-1 176
q-1 38 2.5 61t12.5 44q43 101 151 101q56 0 95.5 -29.5t53.5 -80.5q5 -14 7 -40.5t1 -58.5v-80z" />
    <glyph glyph-name="edieresis" unicode="&#xeb;" horiz-adv-x="361" 
d="M347 627h-127v127h127v-127zM144 627h-126v127h126v-127zM203 359l-1 68q0 38 -21 38q-10 0 -17.5 -10t-5.5 -22l1 -7v-67h44zM159 270v-132v-9q0 -38 25 -38q14 0 19 10t5 39v92h137q1 -12 1.5 -22t0.5 -15q0 -100 -42.5 -150.5t-124.5 -50.5q-92 0 -135 67
q-15 23 -20.5 47t-5.5 64v7l-1 176q0 38 3.5 61t11.5 44q21 50 59.5 75.5t91.5 25.5q56 0 95.5 -29.5t53.5 -80.5q5 -14 7 -40.5t1 -58.5v-80z" />
    <glyph glyph-name="igrave" unicode="&#xec;" horiz-adv-x="193" 
d="M231 613h-135l-133 155h174zM169 0h-144v547h144v-547z" />
    <glyph glyph-name="iacute" unicode="&#xed;" horiz-adv-x="193" 
d="M97 613h-133l92 156h173zM169 0h-144v547h144v-547z" />
    <glyph glyph-name="icircumflex" unicode="&#xee;" horiz-adv-x="193" 
d="M286 613h-131l-55 84l-59 -84h-134l112 153h170zM168 0h-144v547h144v-547z" />
    <glyph glyph-name="idieresis" unicode="&#xef;" horiz-adv-x="193" 
d="M261 613h-127v127h127v-127zM58 613h-126v127h126v-127zM169 0h-144v547h144v-547z" />
    <glyph glyph-name="eth" unicode="&#xf0;" horiz-adv-x="363" 
d="M161 141q0 -23 4 -31t17 -8q11 0 15.5 8.5t4.5 28.5v285q0 23 -4 30.5t-16 7.5t-16.5 -9.5t-4.5 -35.5v-276zM209 645q-5 4 -9.5 4.5t-22.5 0.5h-17v86h66q104 0 116 -68l54 10l11 -64l-62 -11v-407q0 -14 -1 -29.5t-3 -31t-4.5 -28.5t-5.5 -20q-18 -45 -57.5 -69.5
t-93.5 -24.5q-60 0 -102 31t-55 85q-4 14 -5 34t-1 64v159q0 92 43.5 143t122.5 51q9 0 16 -0.5t16 -2.5v23l-65 -11l-11 63z" />
    <glyph glyph-name="ntilde" unicode="&#xf1;" horiz-adv-x="377" 
d="M381 758q-5 -61 -35 -97.5t-76 -36.5q-22 0 -44.5 7t-54.5 24q-20 11 -31 15t-21 4q-29 0 -35 -30h-86q2 32 7.5 49.5t18.5 34.5q33 48 98 48q12 0 21.5 -1t18.5 -4t20.5 -9t28.5 -15q16 -10 28 -14t22 -4q25 0 29 29h91zM166 545l-2 -43q38 56 92 56q34 0 60.5 -21.5
t34.5 -54.5q2 -8 3 -23t1 -32l-1 -427h-144v393q0 34 -4 45t-17 11t-17.5 -9t-4.5 -35v-405h-143v545h142z" />
    <glyph glyph-name="ograve" unicode="&#xf2;" horiz-adv-x="363" 
d="M315 627h-135l-133 155h174zM161 141q0 -23 4.5 -31t17.5 -8q11 0 15.5 8.5t4.5 28.5v285q0 23 -4 30.5t-16 7.5q-13 0 -17.5 -9.5t-4.5 -35.5v-276zM346 196q0 -32 -4 -62t-10 -47q-17 -45 -57 -69.5t-94 -24.5q-60 0 -102.5 30.5t-55.5 84.5q-2 7 -3 15.5t-2 19.5
t-1 26.5v37.5v159q0 93 43.5 143.5t122.5 50.5q52 0 91 -23.5t56 -64.5q7 -16 11.5 -47t4.5 -59v-170z" />
    <glyph glyph-name="oacute" unicode="&#xf3;" horiz-adv-x="363" 
d="M182 627h-133l92 156h173zM161 141q0 -23 4.5 -31t17.5 -8q11 0 15.5 8.5t4.5 28.5v285q0 23 -4 30.5t-16 7.5q-13 0 -17.5 -9.5t-4.5 -35.5v-276zM346 196q0 -32 -4 -62t-10 -47q-17 -45 -57 -69.5t-94 -24.5q-60 0 -102.5 30.5t-55.5 84.5q-2 7 -3 15.5t-2 19.5
t-1 26.5v37.5v159q0 93 43.5 143.5t122.5 50.5q52 0 91 -23.5t56 -64.5q7 -16 11.5 -47t4.5 -59v-170z" />
    <glyph glyph-name="ocircumflex" unicode="&#xf4;" horiz-adv-x="363" 
d="M371 627h-131l-55 84l-59 -84h-134l112 153h170zM161 141q0 -23 4.5 -31t17.5 -8q11 0 15.5 8.5t4.5 28.5v285q0 23 -4 30.5t-16 7.5q-13 0 -17.5 -9.5t-4.5 -35.5v-276zM346 196q0 -32 -4 -62t-10 -47q-17 -45 -57 -69.5t-94 -24.5q-60 0 -102.5 30.5t-55.5 84.5
q-2 7 -3 15.5t-2 19.5t-1 26.5v37.5v159q0 93 43.5 143.5t122.5 50.5q52 0 91 -23.5t56 -64.5q7 -16 11.5 -47t4.5 -59v-170z" />
    <glyph glyph-name="otilde" unicode="&#xf5;" horiz-adv-x="363" 
d="M373 759q-5 -61 -35 -97t-76 -36q-22 0 -44 7t-55 24q-20 11 -31 14.5t-21 3.5q-29 0 -35 -29h-86q2 32 7.5 49t18.5 34q33 48 98 48q12 0 21.5 -1t18.5 -4t20.5 -9t28.5 -15q30 -17 50 -17q25 0 29 28h91zM161 141q0 -23 4.5 -31t17.5 -8q11 0 15.5 8.5t4.5 28.5v285
q0 23 -4 30.5t-16 7.5q-13 0 -17.5 -9.5t-4.5 -35.5v-276zM346 196q0 -32 -4 -62t-10 -47q-17 -45 -57 -69.5t-94 -24.5q-60 0 -102.5 30.5t-55.5 84.5q-2 7 -3 15.5t-2 19.5t-1 26.5v37.5v159q0 93 43.5 143.5t122.5 50.5q52 0 91 -23.5t56 -64.5q7 -16 11.5 -47t4.5 -59
v-170z" />
    <glyph glyph-name="odieresis" unicode="&#xf6;" horiz-adv-x="363" 
d="M346 626h-127v127h127v-127zM143 626h-126v127h126v-127zM161 141q0 -23 4.5 -31t17.5 -8q11 0 15.5 8.5t4.5 28.5v285q0 23 -4 30.5t-16 7.5q-13 0 -17.5 -9.5t-4.5 -35.5v-276zM346 196q0 -32 -4 -62t-10 -47q-17 -45 -57 -69.5t-94 -24.5q-60 0 -102.5 30.5
t-55.5 84.5q-2 7 -3 15.5t-2 19.5t-1 26.5v37.5v159q0 93 43.5 143.5t122.5 50.5q52 0 91 -23.5t56 -64.5q7 -16 11.5 -47t4.5 -59v-170z" />
    <glyph glyph-name="divide" unicode="&#xf7;" 
d="M494 390v-100h-487v100h487zM251 230q30 0 51.5 -21.5t21.5 -52.5t-21.5 -52.5t-52.5 -21.5t-52.5 21.5t-21.5 52.5t21.5 52.5t53.5 21.5zM251 597q30 0 51.5 -21.5t21.5 -52.5t-21.5 -52.5t-52.5 -21.5t-52.5 21.5t-21.5 52.5t21.5 52.5t53.5 21.5z" />
    <glyph glyph-name="oslash" unicode="&#xf8;" horiz-adv-x="363" 
d="M313 559l33 -16l-26 -51q14 -23 20 -51.5t6 -74.5v-170q0 -32 -4 -62t-10 -47q-17 -45 -57 -69.5t-94 -24.5q-64 0 -111 38l-21 -38l-32 15l27 52q-9 16 -14.5 28t-8.5 27t-3.5 36.5t-0.5 55.5v159q0 92 43.5 143t122.5 51q34 0 59.5 -9t51.5 -29zM203 424q0 23 -4 30.5
t-16 7.5t-16.5 -9.5t-4.5 -35.5v-149l41 94v62zM162 141q0 -23 4 -31t17 -8q11 0 15.5 8.5t4.5 28.5v142l-41 -92v-48z" />
    <glyph glyph-name="ugrave" unicode="&#xf9;" horiz-adv-x="377" 
d="M322 612h-135l-133 155h175zM212 0l2 43q-20 -29 -42 -42.5t-50 -13.5q-35 0 -61 20.5t-34 55.5q-2 9 -3 20.5t-1 34.5l1 427h144v-393q0 -34 4 -45t17 -11t17.5 9.5t4.5 34.5v405h143v-545h-142z" />
    <glyph glyph-name="uacute" unicode="&#xfa;" horiz-adv-x="377" 
d="M189 612h-133l92 156h173zM212 0l2 43q-20 -29 -42 -42.5t-50 -13.5q-35 0 -61 20.5t-34 55.5q-2 9 -3 20.5t-1 34.5l1 427h144v-393q0 -34 4 -45t17 -11t17.5 9.5t4.5 34.5v405h143v-545h-142z" />
    <glyph glyph-name="ucircumflex" unicode="&#xfb;" horiz-adv-x="377" 
d="M378 612h-131l-55 84l-59 -84h-134l112 153h170zM212 0l2 43q-38 -56 -93 -56q-35 0 -61 20.5t-34 55.5q-2 9 -3 20.5t-1 34.5l1 427h144v-393q0 -34 4 -45t18 -11q13 0 17.5 9.5t4.5 34.5v405h143v-545h-142z" />
    <glyph glyph-name="udieresis" unicode="&#xfc;" horiz-adv-x="377" 
d="M353 612h-127v127h127v-127zM150 612h-126v127h126v-127zM212 0l2 43q-20 -29 -42 -42.5t-50 -13.5q-35 0 -61 20.5t-34 55.5q-2 9 -3 20.5t-1 34.5l1 427h144v-393q0 -34 4 -45t17 -11t17.5 9.5t4.5 34.5v405h143v-545h-142z" />
    <glyph glyph-name="yacute" unicode="&#xfd;" horiz-adv-x="326" 
d="M195 613h-133l92 156h173zM265 74q-7 -51 -16 -82.5t-25 -48t-43 -21t-70 -3.5l-94 1v80h6q16 0 26.5 1t13.5 3q13 6 13 21q0 2 -1.5 13.5t-4.5 27t-6 33.5t-6 33l-58 415h135l37 -380l35 380h118z" />
    <glyph glyph-name="thorn" unicode="&#xfe;" horiz-adv-x="362" 
d="M204 415q0 26 -4 35t-15 9q-6 0 -12.5 -4.5t-6.5 -9.5v-320q0 -5 7 -10t12 -5q11 0 15 10t4 34v261zM166 516q26 26 44.5 35.5t43.5 9.5q32 0 55.5 -19.5t32.5 -53.5q2 -10 3 -20.5t1 -37.5v-300q0 -22 -1 -34.5t-5 -26.5q-9 -34 -33.5 -54.5t-56.5 -20.5q-24 0 -44 12
t-40 38v-118h-143v741h143v-151z" />
    <glyph glyph-name="ydieresis" unicode="&#xff;" horiz-adv-x="326" 
d="M327 613h-127v127h127v-127zM124 613h-126v127h126v-127zM265 74q-7 -51 -16 -82.5t-25 -48t-43 -21t-70 -3.5l-94 1v80h6q16 0 26.5 1t13.5 3q13 6 13 21q0 2 -1.5 13.5t-4.5 27t-6 33.5t-6 33l-58 415h135l37 -380l35 380h118z" />
    <glyph glyph-name="OE" unicode="&#x152;" horiz-adv-x="488" 
d="M171 156q0 -32 5.5 -43.5t19.5 -11.5q13 0 18.5 11.5t5.5 38.5v362q0 35 -5 46.5t-19 11.5t-19.5 -13t-5.5 -48v-354zM473 667v-135h-106v-125h95v-125h-95v-149h112v-133h-205q-20 -8 -36 -11t-38 -3q-176 0 -176 198v304q0 94 44.5 144t126.5 50q20 0 36.5 -3.5
t41.5 -11.5h200z" />
    <glyph glyph-name="oe" unicode="&#x153;" horiz-adv-x="545" 
d="M388 358l-1 68q0 38 -21 38q-23 0 -23 -39v-67h45zM344 269v-132v-9q0 -38 25 -38q14 0 19 10t5 39v92h137q1 -12 1.5 -22t0.5 -15q0 -99 -42.5 -150t-123.5 -51q-30 0 -49.5 5t-45.5 20q-22 -14 -42.5 -19.5t-47.5 -5.5q-60 0 -102.5 30.5t-55.5 84.5q-2 7 -3 15.5
t-2 19.5t-1 26.5v37.5v159q0 93 43.5 143.5t124.5 50.5q27 0 48 -6t44 -20q20 13 42.5 19.5t49.5 6.5q56 0 95.5 -29.5t53.5 -80.5q5 -14 7 -40.5t1 -58.5v-80zM161 141q0 -23 4 -31t17 -8q11 0 15.5 8.5t4.5 28.5v285q0 23 -4 30.5t-16 7.5t-16.5 -9.5t-4.5 -35.5v-276z
" />
    <glyph glyph-name="Scaron" unicode="&#x160;" horiz-adv-x="367" 
d="M-6 898h131l55 -81l59 81h134l-113 -153h-170zM205 466l-1 59v8q0 34 -24 34q-14 0 -19.5 -12t-5.5 -44q0 -24 2 -35.5t8 -19.5q2 -3 4.5 -5t9 -7t19 -15t36.5 -28q38 -29 61 -51t35 -45.5t15.5 -53t3.5 -74.5q0 -62 -9 -95.5t-30 -54.5q-22 -21 -56 -32.5t-72 -11.5
q-49 0 -86 17.5t-55 49.5q-23 40 -23 114v70h137v-91q0 -29 5.5 -40t19.5 -11q30 0 30 55q0 31 -2 49t-12.5 34t-33 34t-63.5 48q-24 17 -39.5 34.5t-25 38.5t-13 49t-3.5 66q0 49 7.5 78t24.5 49q22 25 57 38.5t78 13.5q74 0 114 -36.5t40 -103.5v-73h-134z" />
    <glyph glyph-name="scaron" unicode="&#x161;" horiz-adv-x="339" 
d="M-20 777h131l55 -81l59 81h134l-113 -153h-170zM191 372v44q0 25 -3.5 32t-16.5 7q-23 0 -25 -28v-19l-1 -9q0 -9 0.5 -15t6 -12t17.5 -14.5t34 -21.5q47 -31 67 -45.5t29 -25.5q14 -17 19.5 -38.5t5.5 -59.5q0 -51 -6.5 -80.5t-23.5 -49.5q-38 -48 -127 -48
q-72 0 -112 35.5t-40 100.5v6v61h127l-1 -60q-1 -23 4.5 -32.5t18.5 -9.5q30 0 28 35v7l-1 19q0 11 -1.5 19t-6 14.5t-13.5 13t-23 14.5q-30 18 -55.5 37t-43.5 38q-17 18 -24 41t-7 58q0 38 4.5 63t13.5 42q17 29 55 47.5t83 18.5t81.5 -19t53.5 -51q6 -11 7.5 -21t1.5 -34
v-60h-126z" />
    <glyph glyph-name="Ydieresis" unicode="&#x178;" horiz-adv-x="365" 
d="M349 732h-127v127h127v-127zM145 732h-126v127h126v-127zM249 239v-239h-140v240l-102 425h137l36 -273l42 273h140z" />
    <glyph glyph-name="Zcaron" unicode="&#x17d;" horiz-adv-x="293" 
d="M-34 886h131l55 -81l59 81h134l-113 -153h-170zM282 546l-112 -413h116v-133h-278l1 101l124 442h-109v123h258v-120z" />
    <glyph glyph-name="zcaron" unicode="&#x17e;" horiz-adv-x="257" 
d="M-53 766h131l55 -81l59 81h134l-113 -153h-170zM248 546v-113l-103 -323h105v-110h-246v112l109 328h-98v106h233z" />
    <glyph glyph-name="florin" unicode="&#x192;" horiz-adv-x="520" 
d="M39 -60q14 -2 20.5 -2h9.5q17 0 26 9q2 2 3 4t2.5 7.5t3.5 16.5t6 31l91 452h-30l16 88l35 2q6 34 16 56.5t25 36.5t36.5 20t52.5 6h70l-17 -84l-5 1l-25 1q-19 0 -27 -10t-9 -33h58l-17 -86h-37l-94 -481l-1 -7q-4 -22 -9.5 -37t-13 -26.5t-18.5 -19t-27 -14.5
q-36 -15 -89 -15h-69z" />
    <glyph glyph-name="circumflex" unicode="&#x2c6;" 
d="M440 520h-131l-55 84l-59 -84h-134l112 153h170z" />
    <glyph glyph-name="tilde" unicode="&#x2dc;" 
d="M441 667q-5 -62 -34.5 -97.5t-76.5 -35.5q-20 0 -44 7t-55 23q-22 11 -32 14.5t-20 3.5q-29 0 -35 -29h-86q3 32 8 49.5t18 34.5q34 48 98 48q12 0 21.5 -1t19 -4t20.5 -9t28 -15q30 -17 50 -17q25 0 29 28h91z" />
    <glyph glyph-name="endash" unicode="&#x2013;" horiz-adv-x="484" 
d="M450 271h-417v130h417v-130z" />
    <glyph glyph-name="emdash" unicode="&#x2014;" horiz-adv-x="633" 
d="M578 271h-538v130l538 -1v-129z" />
    <glyph glyph-name="quoteleft" unicode="&#x2018;" horiz-adv-x="164" 
d="M34 515v1q-2 59 22 100.5t66 52.5l4 -49q-9 -9 -14 -18t-4 -17l22 1v-133h-97z" />
    <glyph glyph-name="quoteright" unicode="&#x2019;" horiz-adv-x="163" 
d="M129 609q1 -30 -5.5 -56.5t-18.5 -47.5t-29 -34.5t-36 -16.5l-3 50q18 16 18 31v3h-22v131h97z" />
    <glyph glyph-name="quotesinglbase" unicode="&#x201a;" horiz-adv-x="165" 
d="M132 134q0 -28 -0.5 -46t-1 -31t-2 -23t-4.5 -22q-4 -18 -12.5 -34t-19.5 -29t-24.5 -21.5t-26.5 -10.5l-4 52q9 6 12 11.5t5 19.5h-21v134h99z" />
    <glyph glyph-name="quotedblleft" unicode="&#x201c;" horiz-adv-x="291" 
d="M162 515q0 35 5 57t16 42q14 24 33.5 40.5t33.5 15.5h1l3 -51q-16 -14 -18 -30v-4l22 1v-132h-97zM48 515v1q-2 59 22 100.5t66 52.5l4 -49q-9 -9 -14 -18t-4 -17l22 1v-133h-97z" />
    <glyph glyph-name="quotedblright" unicode="&#x201d;" horiz-adv-x="277" 
d="M129 609q1 -30 -5.5 -56.5t-18.5 -47.5t-29 -34.5t-36 -16.5l-3 50q18 16 18 31v3h-22v131h97zM242 608q2 -60 -21.5 -101t-66.5 -53l-4 50q19 19 18 34l-22 -1v132h97z" />
    <glyph glyph-name="quotedblbase" unicode="&#x201e;" horiz-adv-x="283" 
d="M250 134q0 -28 -0.5 -46t-1 -31t-2 -23t-4.5 -22q-4 -18 -12.5 -34t-19.5 -29t-24.5 -21.5t-26.5 -10.5l-4 52q9 6 12 11.5t5 19.5h-21v134h99zM132 134q0 -28 -0.5 -46t-1 -31t-2 -23t-4.5 -22q-4 -18 -12.5 -34t-19.5 -29t-24.5 -21.5t-26.5 -10.5l-4 52q9 6 12 11.5
t5 19.5h-21v134h99z" />
    <glyph glyph-name="dagger" unicode="&#x2020;" horiz-adv-x="520" 
d="M498 370h-174v-525h-129v525h-173v114h173v183h129v-183h174v-114z" />
    <glyph glyph-name="daggerdbl" unicode="&#x2021;" horiz-adv-x="520" 
d="M498 378h-175v-242h175v-111h-175v-180h-128v180h-173v111h173v242h-173v111h173v178h128v-178h175v-111z" />
    <glyph glyph-name="bullet" unicode="&#x2022;" 
d="M250 449q23 0 43.5 -9t35.5 -24.5t24 -36t9 -43.5t-9 -43.5t-24.5 -36t-36 -24.5t-43.5 -9t-43.5 9t-36 24.5t-24.5 36t-9 43.5q0 24 9 44.5t24.5 35.5t36 24t44.5 9z" />
    <glyph glyph-name="ellipsis" unicode="&#x2026;" horiz-adv-x="546" 
d="M475 0h-105v134h105v-134zM326 0h-105v134h105v-134zM175 0h-105v134h105v-134z" />
    <glyph glyph-name="perthousand" unicode="&#x2030;" horiz-adv-x="654" 
d="M444 192q0 36 3.5 57t12.5 35q26 42 81 42q96 0 96 -119v-90q0 -68 -22.5 -98.5t-73.5 -30.5q-32 0 -55.5 14.5t-33.5 40.5q-4 12 -6 30.5t-2 47.5v71zM528 81q0 -17 2.5 -22.5t9.5 -5.5q8 0 10 6t2 24v157q0 17 -2.5 22.5t-9.5 5.5q-12 0 -12 -29v-158zM218 192
q0 36 3.5 57t12.5 35q26 42 81 42q96 0 96 -119v-90q0 -68 -22.5 -98.5t-73.5 -30.5q-32 0 -55.5 14.5t-33.5 40.5q-4 12 -6 30.5t-2 47.5v71zM302 82q0 -17 2.5 -22.5t9.5 -5.5q8 0 10 6t2 23v157q0 17 -2.5 22.5t-9.5 5.5t-9.5 -6t-2.5 -23v-157zM17 550q0 36 3.5 56.5
t12.5 35.5q26 42 81 42q96 0 96 -119v-90q0 -68 -22.5 -98.5t-73.5 -30.5q-32 0 -55.5 14.5t-33.5 40.5q-4 12 -6 30.5t-2 47.5v71zM101 439q0 -16 2.5 -22t9.5 -6q8 0 10 6t2 24v157q0 17 -2.5 22.5t-9.5 5.5q-12 0 -12 -29v-158zM366 680l-255 -680h-34l254 680h35z" />
    <glyph glyph-name="guilsinglleft" unicode="&#x2039;" horiz-adv-x="311" 
d="M192 229l79 -179h-123l-115 179l115 183h123z" />
    <glyph glyph-name="guilsinglright" unicode="&#x203a;" horiz-adv-x="312" 
d="M279 229l-115 -181h-124l79 181l-79 184h124z" />
    <glyph glyph-name="Euro" unicode="&#x20ac;" horiz-adv-x="388" 
d="M286 439l-23 -101h-91v-27h88l-23 -101h-65v-50q0 -37 5 -49.5t21 -12.5q14 0 19.5 11t5.5 38v27h148v-29q0 -28 -16.5 -62.5t-40.5 -58.5q-42 -41 -121 -41q-127 0 -158 110q-6 19 -8.5 48.5t-2.5 68.5h-48l22 101h26v27h-44l23 101h21v14q0 54 4.5 84t16.5 54
q41 88 152 88q47 0 79.5 -14t56.5 -44q18 -23 28 -48.5t10 -51.5v-46h-146v42q0 28 -6 38.5t-20 10.5q-20 0 -25 -20q-2 -3 -2 -9.5v-24.5v-73h114z" />
    <glyph glyph-name="trademark" unicode="&#x2122;" horiz-adv-x="576" 
d="M542 267h-77l1 264l-36 -264h-55l-30 263l-2 -263h-76v399h117l20 -181l24 181h114v-399zM222 586h-51v-319h-88v319h-50v81h189v-81z" />
    <glyph glyph-name="glyph220" horiz-adv-x="0" 
 />
    </font>
</defs>
</svg>
